<svg class="logo-svg" width="232" height="65" viewBox="0 0 231 65" fill="none" xmlns="http://www.w3.org/2000/svg"><path fill-rule="evenodd" clip-rule="evenodd" d="M21.019 30.498a9.735 9.735 0 01-1.682-9.684C19.169 17.645 13.908 8.9 13.908 8.9a53.428 53.428 0 016.376 11.787c3.7 6.049.735 9.811.735 9.811zm-4.8-7.138s-3.389-2.9-2.345-9.955c-1.417-4.051-6.577-8.507-6.577-8.507a18.377 18.377 0 017.439 9.362c4.722 6.838 1.484 9.101 1.484 9.101l-.001-.001zm-4.047-4.746s-4.1-2.012-6.676-9.017C4.96 8.262.341.985.341.985S5.309 8.023 6.32 9.034c5.38 5.091 5.853 9.58 5.853 9.58h-.001zm-5.388-.361c6.942 1.593 8.338 5.857 8.338 5.857s-3.337 2.233-7.875-4.729A18.23 18.23 0 011.405 8.926s2.163 6.507 5.38 9.327h-.001zm13.292 12.985s-4.683 1.452-8.908-4.269a52.119 52.119 0 01-8.557-10.358s6.142 8.188 9.045 9.5a9.52 9.52 0 018.421 5.128l-.001-.001z" fill="#FFB715"/><path fill-rule="evenodd" clip-rule="evenodd" d="M34.837 43.375l1.843-1.067a.714.714 0 00.256-.976l-4.611-8.013a.706.706 0 00-.968-.26l-1.843 1.067a.712.712 0 00-.26.972l.5.864a2.278 2.278 0 01-1.679-.063c-2.294-.712-5.524-.771-6.739 0-.29.324-.655.57-1.064.715a4.2 4.2 0 01-2.913-.782l.421-.73a.714.714 0 00-.26-.972l-1.843-1.067a.708.708 0 00-.969.26l-4.611 8.013a.712.712 0 00.26.972l1.843 1.068a.71.71 0 00.969-.261l.431-.75 1.993 1.661-.266.266a1.125 1.125 0 000 1.718l.285.285c.208.203.461.354.738.443.066.266.204.508.4.7l.043.039a1.024 1.024 0 00.93.425c.023.363.182.704.446.955l.043.043a1.2 1.2 0 001.557.14l.571.572a1.2 1.2 0 001.713 0l.126-.127a13.08 13.08 0 002.565.542c1.439.139 2.339-.561 2.165-1.061.865.233 2.109-.391 1.93-1.391a1.262 1.262 0 001.434-1.333 3.342 3.342 0 001-.189 1.8 1.8 0 001-1.006 1.386 1.386 0 00-.141-1.172 3.016 3.016 0 001.471-1.221l.265.46a.706.706 0 00.969.261zm-13.896 5.842l-.251-.252a.738.738 0 01-.269-.563l1.012-1.015a.924.924 0 01.511.112.781.781 0 010 1.215l-.147.147a1.159 1.159 0 01-.856.356zm-2.214-.85a.768.768 0 01-.269-.218.666.666 0 01.157-.78l1.644-1.65a.48.48 0 01.621 0 .735.735 0 010 1.215l-1.211 1.215a.768.768 0 01-.942.218zm-.912-1.363a.728.728 0 01-.511-.08c-.247-.259-.196-.562.193-.949l1.565-1.578a.716.716 0 011-.2c.326.293-.108.817-.247.956l-1.565 1.571a.727.727 0 01-.435.28zm-1.294-1.034a.926.926 0 01-.442-.208.732.732 0 010-1.217l.147-.148a.821.821 0 011.211 0 .434.434 0 01.147.478l-.834.844a1.51 1.51 0 00-.229.251zm-.891-12.114l1.228.712a.356.356 0 01.13.486l-4.256 7.4a.355.355 0 01-.485.13l-1.229-.712a.357.357 0 01-.129-.486l4.256-7.4a.355.355 0 01.485-.13zm1.315 2.696c.397.45.954.728 1.553.774.262.023.503.007.729-.008.244-.017.47-.032.69.005-.419.447-1.419 1.779-1.419 1.779a1.363 1.363 0 000 1.779c.794.8 2.128 0 2.128 0s1.793-1.474 2.339-1.822a1.017 1.017 0 011.211 0c.297.178 6.543 4.078 6.99 4.878.88 1.317-.957 1.707-1.713 1.007l-2.734-2.031c-.675-.481-1.352.085-.752.607l3.518 2.484a.729.729 0 01-1.029.756l-3.113-2c-.623-.447-1.044.264-.367.685l3.092 1.957a.828.828 0 01-1.03.784l-2.759-1.292c-.623-.447-1.044.264-.367.685 0 0 1.209.668 2.209 1.1-.153.537-.853.624-1.566.574a17.267 17.267 0 01-1.764-.407 1.138 1.138 0 00-.095-1.6l-.617-.618a1.028 1.028 0 00-.447-1.161l-.043-.043a3.251 3.251 0 00-.637-.526 1 1 0 00-.384-1.21l-.043-.043a1.15 1.15 0 00-1.713 0l-.562.564-.563-.564a1.143 1.143 0 00-1.57-.132l-2.126-1.828 2.954-5.133zm10.018.076c.677.173 1.335.342 1.821.342v.005a2.43 2.43 0 001.367-.328l3.027 5.26a2.847 2.847 0 01-1.928 1.3c-.821-1.319-6.821-4.9-6.821-4.9a1.381 1.381 0 00-1.713 0s-1.449 1.169-2.442 1.865c-.993.696-1.479-.023-.71-1.068.408-.642.884-1.238 1.419-1.779a2.751 2.751 0 011.773-1.067c.709-.05 1.42-.05 2.128 0 .581-.013 1.341.181 2.08.37zm4.929-2.645l4.256 7.4h.002a.357.357 0 01-.132.486l-1.229.712a.354.354 0 01-.484-.13l-4.256-7.4a.357.357 0 01.129-.486l1.229-.712a.354.354 0 01.485.13z" fill="#fff"/><mask id="a" maskUnits="userSpaceOnUse" x="0" y="17" width="48" height="48"><path d="M5.475 25.742a24 24 0 1018.226-8.74l.123 9.917a14.082 14.082 0 11-10.694 5.128l-7.655-6.305z" fill="#C4C4C4"/></mask><g mask="url(#a)"><path class="logo-path" fill-rule="evenodd" clip-rule="evenodd" d="M.025 40.196l.002.036c1.156.097 2.005.36 2.633.704a4.064 4.064 0 011.681 2.817 4.565 4.565 0 01-3.036 4.733c.43 1.239.963 2.44 1.592 3.592a3.983 3.983 0 015.5.866 4.6 4.6 0 01.692 1.595l-.16.48.222-.147a4.6 4.6 0 01-.067 1.692l-1.198 1.583.319.25a4.532 4.532 0 01-.114.139 23.311 23.311 0 003.535 2.537c1.6-2.017 3.543-2.286 4.735-1.824l.062.019a4.178 4.178 0 012.543 4.589l.301.058v.002c1.19.22 2.398.348 3.609.38h.014a3.59 3.59 0 01-.016-.117 4.278 4.278 0 013.602-4.216 4.972 4.972 0 014.693 2.829c.02.069.038.14.055.21a23.652 23.652 0 003.546-1.568c-.014-.04-.043-.1-.08-.181-.23-.487-.794-1.689-.537-3.023.24-1.065.902-1.839 1.507-2.323a4.844 4.844 0 014.87-.217c.233.157.421.308.557.417.067.054.122.097.163.127a23.386 23.386 0 002.413-3.323 4.038 4.038 0 01.186-7.406c.333-.127.667-.209.981-.26a4.038 4.038 0 011.74.15c.059-.292.112-.585.159-.878.22-.96.316-1.944.284-2.928l.006-.207h-.014l-.002-.035c-1.157-.098-2.005-.36-2.634-.704a4.064 4.064 0 01-1.681-2.817 4.565 4.565 0 013.037-4.733c-.43-1.24-.963-2.441-1.592-3.592a3.983 3.983 0 01-5.5-.866 4.6 4.6 0 01-.693-1.596l.16-.48-.22.147a4.588 4.588 0 01.066-1.691l1.198-1.583-.319-.251c.037-.047.075-.093.114-.138a23.312 23.312 0 00-3.535-2.537c-1.6 2.017-3.543 2.286-4.735 1.824a4.5 4.5 0 01-.062-.02 4.178 4.178 0 01-2.543-4.588c-.1-.02-.2-.04-.301-.058v-.002a23.332 23.332 0 00-3.609-.381h-.014l.016.118a4.277 4.277 0 01-3.602 4.216 4.972 4.972 0 01-4.693-2.83 3.87 3.87 0 01-.055-.21c-1.223.425-2.41.95-3.546 1.569.014.038.043.1.08.18.23.488.794 1.69.537 3.024-.24 1.065-.902 1.838-1.507 2.323a4.844 4.844 0 01-4.87.217 8.464 8.464 0 01-.558-.417v-.001a4.36 4.36 0 00-.162-.126 23.387 23.387 0 00-2.413 3.323 4.038 4.038 0 01-.186 7.405 4.962 4.962 0 01-.982.26 4.037 4.037 0 01-1.74-.15c-.058.292-.11.585-.158.879a11.4 11.4 0 00-.284 2.928 23.38 23.38 0 00-.006.207l.014-.001zm8.222-.16a15.3 15.3 0 0121.814-13.069l-.071.09c.798.387 1.56.84 2.28 1.358l.102-.097a15.299 15.299 0 016.435 11.675l-.707.089a1.207 1.207 0 00.71.71l.018-.009c0 .25-.006.5-.017.75l-.028.01a15.3 15.3 0 01-21.814 13.069l.071-.09a15.376 15.376 0 01-2.28-1.357l-.102.097a15.3 15.3 0 01-6.435-11.676l.707-.088a1.207 1.207 0 00-.71-.71l-.018.008c0-.25.005-.5.017-.75l.028-.01z" fill="#fff"/><path class="logo-path" d="M7.152 57.155l.356-.712.712.356-1.068.356zM39.878 24.425l-.356.712-.712-.356 1.068-.356z" fill="#fff"/></g></svg>