<svg xmlns="http://www.w3.org/2000/svg" viewBox="0 0 512 512"><path d="M434.56 110.165a10.666 10.666 0 00-7.893-3.499H85.334c-5.891-.026-10.688 4.728-10.714 10.619-.002.351.014.701.047 1.05l32 341.333a10.668 10.668 0 007.701 9.259l149.333 42.667c.964.274 1.963.41 2.965.405a10.995 10.995 0 003.371-.533l128-42.667a10.667 10.667 0 007.253-9.131l32-341.333a10.661 10.661 0 00-2.73-8.17z" fill="#2196f3"/><g fill="#fafafa"><path d="M266.667 426.667a10.675 10.675 0 01-2.923-.427l-74.667-21.333a10.666 10.666 0 01-7.424-7.659l-10.667-42.667c-1.558-5.681 1.785-11.55 7.466-13.108 5.681-1.558 11.55 1.785 13.108 7.466.044.159.083.318.119.479l9.173 36.693 65.813 18.816 64.853-18.539 19.2-173.035H160c-5.891 0-10.667-4.776-10.667-10.667s4.776-10.667 10.667-10.667h202.667c5.891-.036 10.695 4.711 10.731 10.602.002.414-.019.827-.065 1.238l-21.333 192a10.668 10.668 0 01-7.68 9.067l-74.667 21.333c-.971.278-1.976.415-2.986.408z"/><path d="M352 298.667H170.667c-5.891 0-10.667-4.776-10.667-10.667s4.776-10.667 10.667-10.667H352c5.891 0 10.667 4.776 10.667 10.667s-4.776 10.667-10.667 10.667z"/></g><g fill="#37474f"><path d="M192 64h-42.667c-5.891 0-10.667-4.776-10.667-10.667V10.667C138.667 4.776 143.443 0 149.334 0H192c5.891 0 10.667 4.776 10.667 10.667S197.891 21.333 192 21.333h-32v21.333h32c5.891 0 10.667 4.776 10.667 10.667S197.891 64 192 64zM277.334 64h-42.667C228.776 64 224 59.224 224 53.333s4.776-10.667 10.667-10.667h16.917l-24.469-24.448c-4.171-4.16-4.179-10.914-.019-15.085a10.667 10.667 0 017.571-3.134h42.667C283.225 0 288 4.776 288 10.667s-4.776 10.667-10.667 10.667h-16.917l24.448 24.448A10.667 10.667 0 01277.334 64zM362.667 64H320c-5.891 0-10.667-4.776-10.667-10.667S314.109 42.667 320 42.667h16.917l-24.469-24.448c-4.171-4.16-4.179-10.914-.019-15.085A10.667 10.667 0 01320 0h42.667c5.891 0 10.667 4.776 10.667 10.667s-4.776 10.667-10.667 10.667H345.75l24.448 24.448c4.171 4.16 4.179 10.914.019 15.085a10.671 10.671 0 01-7.55 3.133z"/></g><path d="M266.667 512a10.664 10.664 0 01-2.923-.405l-149.333-42.667a10.666 10.666 0 01-7.744-9.259l-32-341.333c-.554-5.865 3.752-11.068 9.617-11.622.349-.033.699-.049 1.05-.047h341.333c5.891-.026 10.688 4.728 10.714 10.619.002.351-.014.701-.047 1.05l-32 341.333a10.665 10.665 0 01-7.253 9.109l-128 42.667c-1.101.37-2.254.557-3.414.555zm-139.392-61.589l139.157 39.744 118.272-39.424L414.955 128H97.046l30.229 322.411z"/><path d="M266.667 426.667a10.664 10.664 0 01-2.923-.405l-74.667-21.333a10.665 10.665 0 01-7.424-7.68l-10.667-42.667c-1.293-5.747 2.317-11.455 8.064-12.748a10.667 10.667 0 0112.629 7.586l9.173 36.693 65.813 18.795 64.853-18.539 19.2-173.035H160c-5.891 0-10.667-4.776-10.667-10.667S154.109 192 160 192h202.667c5.891-.036 10.695 4.711 10.731 10.602.002.414-.019.827-.065 1.238L352 395.84a10.667 10.667 0 01-7.68 9.088l-74.667 21.333a10.65 10.65 0 01-2.986.406z"/><path d="M352 298.667H170.667c-5.891 0-10.667-4.776-10.667-10.667s4.776-10.667 10.667-10.667H352c5.891 0 10.667 4.776 10.667 10.667s-4.776 10.667-10.667 10.667zM192 64h-42.667c-5.891 0-10.667-4.776-10.667-10.667V10.667C138.667 4.776 143.443 0 149.334 0H192c5.891 0 10.667 4.776 10.667 10.667S197.891 21.333 192 21.333h-32v21.333h32c5.891 0 10.667 4.776 10.667 10.667S197.891 64 192 64zM277.334 64h-42.667C228.776 64 224 59.224 224 53.333s4.776-10.667 10.667-10.667h16.917l-24.469-24.448c-4.171-4.16-4.179-10.914-.019-15.085a10.667 10.667 0 017.571-3.134h42.667C283.225 0 288 4.776 288 10.667s-4.776 10.667-10.667 10.667h-16.917l24.448 24.448A10.667 10.667 0 01277.334 64zM362.667 64H320c-5.891 0-10.667-4.776-10.667-10.667S314.109 42.667 320 42.667h16.917l-24.469-24.448c-4.171-4.16-4.179-10.914-.019-15.085A10.667 10.667 0 01320 0h42.667c5.891 0 10.667 4.776 10.667 10.667s-4.776 10.667-10.667 10.667H345.75l24.448 24.448c4.171 4.16 4.179 10.914.019 15.085a10.671 10.671 0 01-7.55 3.133z"/></svg>