<svg xmlns="http://www.w3.org/2000/svg" viewBox="0 0 512.001 512.001"><g fill="#37474f"><path d="M106.667.001C100.776.001 96 4.777 96 10.668v42.667c0 5.891 4.776 10.667 10.667 10.667s10.667-4.776 10.667-10.667V10.667c0-5.891-4.776-10.666-10.667-10.666z"/><path d="M149.334 42.667h-42.667C100.776 42.667 96 37.891 96 32s4.776-10.667 10.667-10.667h42.667c5.891 0 10.667 4.776 10.667 10.667s-4.776 10.667-10.667 10.667z"/><path d="M149.334 64.001c-5.891 0-10.667-4.776-10.667-10.667V10.667C138.667 4.776 143.443 0 149.334 0s10.667 4.776 10.667 10.667v42.667c0 5.891-4.776 10.667-10.667 10.667zM234.667 21.334H192c-5.891 0-10.667-4.776-10.667-10.667S186.109 0 192 0h42.667c5.891 0 10.667 4.776 10.667 10.667s-4.776 10.667-10.667 10.667z"/><path d="M213.334 64.001c-5.891 0-10.667-4.776-10.667-10.667V10.667C202.667 4.776 207.443 0 213.334 0s10.667 4.776 10.667 10.667v42.667c0 5.891-4.776 10.667-10.667 10.667zM341.334 64.001c-5.891 0-10.667-4.776-10.667-10.667V42.667l-12.8 17.067c-3.878 4.713-10.842 5.39-15.555 1.512a11.023 11.023 0 01-1.512-1.512L288 42.667v10.667c0 5.891-4.776 10.667-10.667 10.667s-10.667-4.776-10.667-10.667V10.667C266.666 4.776 271.442 0 277.333 0c3.357 0 6.519 1.581 8.533 4.267l23.467 31.275L332.8 4.267c3.535-4.713 10.221-5.668 14.933-2.133A10.666 10.666 0 01352 10.667v42.667c.001 5.891-4.775 10.667-10.666 10.667zM416.001 64.001h-32c-5.891 0-10.667-4.776-10.667-10.667V10.667C373.334 4.776 378.11 0 384.001 0s10.667 4.776 10.667 10.667v32h21.333c5.891 0 10.667 4.776 10.667 10.667s-4.776 10.667-10.667 10.667z"/></g><path d="M434.561 110.166a10.666 10.666 0 00-7.893-3.499H85.334c-5.891-.026-10.688 4.728-10.714 10.619-.002.351.014.701.047 1.05l32 341.333a10.668 10.668 0 007.701 9.259l149.333 42.667c.964.274 1.963.41 2.965.405a10.995 10.995 0 003.371-.533l128-42.667a10.667 10.667 0 007.253-9.131l32-341.333a10.662 10.662 0 00-2.729-8.17z" fill="#ff5722"/><path d="M266.667 426.667a10.675 10.675 0 01-2.923-.427l-74.667-21.333a10.666 10.666 0 01-7.424-7.659l-10.667-42.667c-1.558-5.681 1.785-11.55 7.466-13.108 5.681-1.558 11.55 1.785 13.108 7.466.044.159.083.318.119.479l9.173 36.693 65.579 18.731 54.315-18.112 8.789-88.064H170.667A10.667 10.667 0 01160 289.343l-10.667-85.333c-.742-5.844 3.393-11.183 9.237-11.926.474-.06.952-.089 1.429-.085h202.667c5.891 0 10.667 4.776 10.667 10.667s-4.776 10.667-10.667 10.667H172.075l8 64h161.259c5.891-.03 10.69 4.722 10.72 10.613.002.374-.016.748-.053 1.12l-10.667 106.667a10.669 10.669 0 01-7.232 9.067l-64 21.333c-1.109.359-2.269.54-3.435.534z" fill="#fafafa"/><path d="M106.667 64.001C100.776 64.001 96 59.225 96 53.334V10.667C96 4.776 100.776 0 106.667 0s10.667 4.776 10.667 10.667v42.667c0 5.891-4.776 10.667-10.667 10.667z"/><path d="M149.334 42.667h-42.667C100.776 42.667 96 37.891 96 32s4.776-10.667 10.667-10.667h42.667c5.891 0 10.667 4.776 10.667 10.667s-4.776 10.667-10.667 10.667z"/><path d="M149.334 64.001c-5.891 0-10.667-4.776-10.667-10.667V10.667C138.667 4.776 143.443 0 149.334 0s10.667 4.776 10.667 10.667v42.667c0 5.891-4.776 10.667-10.667 10.667zM234.667 21.334H192c-5.891 0-10.667-4.776-10.667-10.667S186.109 0 192 0h42.667c5.891 0 10.667 4.776 10.667 10.667s-4.776 10.667-10.667 10.667z"/><path d="M213.334 64.001c-5.891 0-10.667-4.776-10.667-10.667V10.667C202.667 4.776 207.443 0 213.334 0s10.667 4.776 10.667 10.667v42.667c0 5.891-4.776 10.667-10.667 10.667zM341.334 64.001c-5.891 0-10.667-4.776-10.667-10.667V42.667l-12.8 17.067c-3.878 4.713-10.842 5.39-15.555 1.512a11.023 11.023 0 01-1.512-1.512L288 42.667v10.667c0 5.891-4.776 10.667-10.667 10.667s-10.667-4.776-10.667-10.667V10.667C266.666 4.776 271.442 0 277.333 0c3.357 0 6.519 1.581 8.533 4.267l23.467 31.275L332.8 4.267c3.535-4.713 10.221-5.668 14.933-2.133A10.666 10.666 0 01352 10.667v42.667c.001 5.891-4.775 10.667-10.666 10.667zM416.001 64.001h-32c-5.891 0-10.667-4.776-10.667-10.667V10.667C373.334 4.776 378.11 0 384.001 0s10.667 4.776 10.667 10.667v32h21.333c5.891 0 10.667 4.776 10.667 10.667s-4.776 10.667-10.667 10.667zM266.667 512.001a10.675 10.675 0 01-2.923-.427l-149.333-42.667a10.667 10.667 0 01-7.744-9.237l-32-341.333c-.554-5.865 3.752-11.068 9.617-11.622.349-.033.699-.049 1.05-.047h341.333c5.891-.026 10.688 4.728 10.714 10.619.002.351-.014.701-.047 1.05l-32 341.333a10.668 10.668 0 01-7.253 9.131l-128 42.667a11.022 11.022 0 01-3.414.533zm-139.392-61.59l139.157 39.744 118.272-39.424L414.955 128H97.046l30.229 322.411z"/><path d="M266.667 426.667a10.675 10.675 0 01-2.923-.427l-74.667-21.333a10.666 10.666 0 01-7.424-7.659l-10.667-42.667c-1.558-5.681 1.785-11.55 7.466-13.108 5.681-1.558 11.55 1.785 13.108 7.466.044.159.083.318.119.479l9.173 36.693 65.579 18.731 54.315-18.112 8.789-88.064H170.667A10.667 10.667 0 01160 289.343l-10.667-85.333c-.742-5.844 3.393-11.183 9.237-11.926.474-.06.952-.089 1.429-.085h202.667c5.891 0 10.667 4.776 10.667 10.667s-4.776 10.667-10.667 10.667H172.075l8 64h161.259c5.891-.03 10.69 4.722 10.72 10.613.002.374-.016.748-.053 1.12l-10.667 106.667a10.669 10.669 0 01-7.232 9.067l-64 21.333c-1.109.359-2.269.54-3.435.534z"/></svg>