<svg xmlns="http://www.w3.org/2000/svg" viewBox="0 0 480 480"><g fill="#abd4d8"><path d="M96 136h368v32H96zM96 409.976l86.4-61c-4.072-11.592-6.4-24.008-6.4-36.976 0-61.76 50.24-112 112-112s112 50.24 112 112-50.24 112-112 112c-30.312 0-57.8-12.152-77.984-31.776L99.096 464H440c13.232 0 24-10.768 24-24V184H96v225.976z"/></g><path d="M288 408c52.936 0 96-43.064 96-96s-43.064-96-96-96-96 43.064-96 96 43.064 96 96 96zm-46.248-109c1.544-1.928 3.944-2.976 6.376-3a7.981 7.981 0 016.272 3.2l13.912 18.544 11.928-47.688a8.006 8.006 0 017.344-6.056c3.64-.264 6.736 1.96 7.928 5.256l24.16 66.424 24.744-74.216 15.168 5.064-32 96a8.01 8.01 0 01-7.48 5.472h-.112a7.99 7.99 0 01-7.512-5.264l-23.064-63.424-9.664 38.624a7.985 7.985 0 01-6.168 5.904c-3.072.568-6.144-.576-7.984-3.048l-17.8-23.736-25.544 31.936-12.496-10L241.752 299z" fill="#f08843"/><path d="M80 128c0-4.424 3.576-8 8-8h320V80H16v272h64V128z" fill="#668894"/><g fill="#abd4d8"><path d="M188.888 363.992l-116.56 82.28c-3 2.12-3.76 6.16-1.72 9.2 2.032 3.048 6.176 3.888 9.232 1.92l119.448-77.296c-3.888-5.048-7.4-10.408-10.4-16.104zM408 16H16v48h392V16zM48 48H32V32h16v16zm32 0H64V32h16v16zm32 0H96V32h16v16z"/></g><g fill="#203c51"><path d="M472 120h-48V8c0-4.424-3.576-8-8-8H8C3.576 0 0 3.576 0 8v352c0 4.424 3.576 8 8 8h72v53.272L63.096 433.2c-10.144 7.16-12.68 20.848-5.8 31.16 4.352 6.528 11.6 10.088 18.968 10.088 1.384 0 2.768-.176 4.144-.432C81.32 477.432 84.296 480 88 480h352c22.056 0 40-17.944 40-40V128c0-4.424-3.576-8-8-8zm-8 48H96v-32h368v32zM408 16v48H16V16h392zM16 352V80h392v40H88c-4.424 0-8 3.576-8 8v224H16zm54.608 103.48c-2.04-3.048-1.28-7.088 1.72-9.2L188.888 364c3 5.688 6.504 11.048 10.4 16.112L79.84 457.408c-3.056 1.96-7.2 1.112-9.232-1.928zM192 312c0-52.936 43.064-96 96-96s96 43.064 96 96-43.064 96-96 96-96-43.064-96-96zm248 152H99.096l110.92-71.776C230.2 411.848 257.688 424 288 424c61.76 0 112-50.24 112-112s-50.24-112-112-112-112 50.24-112 112c0 12.968 2.328 25.384 6.4 36.976l-86.4 61V184h368v256c0 13.232-10.768 24-24 24z"/><path d="M247.8 317.064l17.8 23.736c1.84 2.472 4.912 3.616 7.984 3.048a7.962 7.962 0 006.168-5.904l9.664-38.624 23.064 63.424A8.013 8.013 0 00320 368h.112a7.998 7.998 0 007.48-5.472l32-96-15.168-5.064-24.744 74.216-24.16-66.424c-1.192-3.296-4.288-5.52-7.928-5.256a7.996 7.996 0 00-7.344 6.056l-11.928 47.688L254.4 299.2a7.993 7.993 0 00-6.272-3.2c-2.432.024-4.832 1.072-6.376 3l-32 40 12.496 10 25.552-31.936zM32 32h16v16H32zM64 32h16v16H64zM96 32h16v16H96z"/></g></svg>