<svg height="512" viewBox="0 0 64 64" width="512" xmlns="http://www.w3.org/2000/svg"><rect fill="#d8d7da" height="54" rx="2" width="42" x="11" y="7"/><rect fill="#e6e7e8" height="54" rx="2" width="42" x="7" y="3"/><path d="M11 59h38a2.006 2.006 0 002-2V7h-2v48a2.006 2.006 0 01-2 2H11z" fill="#c6c5ca"/><path d="M17 3v7l-2-3-2 3V3z" fill="#ff5023"/><path d="M49 40h2v2h-2z" fill="#acabb1"/><path d="M51 40h2v2h-2z" fill="#c6c5ca"/><path d="M49 22.71V55a2.006 2.006 0 01-2 2H12.51a122.174 122.174 0 0020.35-15 65.5 65.5 0 002.12-2A88.167 88.167 0 0049 22.71z" fill="#e0e0e2"/><path d="M49 40v2H19a2.006 2.006 0 01-2-2z" fill="#d1d3d4"/><path d="M49 40v2H32.86a65.5 65.5 0 002.12-2z" fill="#bcbec0"/><rect fill="#96c8ef" height="24" rx="2" width="42" x="15" y="16"/><path d="M55 15h-1V9a3 3 0 00-3-3h-1V5a3 3 0 00-3-3H9a3 3 0 00-3 3v50a3 3 0 003 3h1v1a3 3 0 003 3h38a3 3 0 003-3V41h1a3 3 0 003-3V18a3 3 0 00-3-3zm-4-7a1 1 0 011 1v6h-2V8zM14 4h2v2.7l-.168-.252a1.039 1.039 0 00-1.664 0L14 6.7zM8 55V5a1 1 0 011-1h3v6a1 1 0 001.832.555L15 8.8l1.168 1.752A1 1 0 0018 10V4h29a1 1 0 011 1v10H17a3 3 0 00-3 3v20a3 3 0 003 3h31v14a1 1 0 01-1 1H9a1 1 0 01-1-1zm44 4a1 1 0 01-1 1H13a1 1 0 01-1-1v-1h35a3 3 0 003-3V41h2zm4-21a1 1 0 01-1 1H17a1 1 0 01-1-1V18a1 1 0 011-1h38a1 1 0 011 1z"/><path d="M27 22h-4a1 1 0 00-1 1v11h2v-5h3a3 3 0 003-3v-1a3 3 0 00-3-3zm1 4a1 1 0 01-1 1h-3v-3h3a1 1 0 011 1zM47 22h-4a1 1 0 00-1 1v11h2v-5h3a3 3 0 003-3v-1a3 3 0 00-3-3zm1 4a1 1 0 01-1 1h-3v-3h3a1 1 0 011 1zM38 27h-4v-5h-2v12h2v-5h4v5h2V22h-2z"/></svg>