<svg height="512" width="512" xmlns="http://www.w3.org/2000/svg"><path d="M97.704 87.949a7.737 7.737 0 01-7.312-5.206L74.105 35.656a7.735 7.735 0 014.781-9.838 7.732 7.732 0 019.838 4.781l9.95 28.766 13.364-29.435a7.733 7.733 0 0110.24-3.845 7.735 7.735 0 013.845 10.24l-21.378 47.087a7.736 7.736 0 01-7.041 4.537z" fill="#2b4d66"/><path d="M299.832 233.108l-22.815-30.818a26.59 26.59 0 01-5.219-15.823v-56.279H56.431v295.913H179.01v-80.546h19.411c40.525 0 73.377-32.852 73.377-73.377a21.48 21.48 0 0111.809-19.18l13.065-6.588c4.949-2.495 6.458-8.847 3.16-13.302z" fill="#f1d0a5"/><path d="M299.832 233.108l-22.815-30.818a26.592 26.592 0 01-5.219-15.823V130.188H56.431l38.061 48.964c0-5.964 4.835-10.799 10.799-10.799h122.885c10.004 0 18.114 8.11 18.114 18.114a26.6 26.6 0 005.219 15.823l14.109 19.058c7.847 10.6 4.257 25.712-7.519 31.65a21.48 21.48 0 00-11.809 19.18c0 40.525-32.852 73.377-73.377 73.377h-19.411v80.546h25.509v-80.546h19.411c40.525 0 73.377-32.852 73.377-73.377a21.48 21.48 0 0111.809-19.18l13.065-6.588c4.948-2.495 6.457-8.847 3.159-13.302z" fill="#f1b986"/><path d="M209.793 211.022a7.734 7.734 0 01-7.735-7.735v-13.292a7.735 7.735 0 1115.47 0v13.292a7.735 7.735 0 01-7.735 7.735z" fill="#2b4d66"/><path d="M247.225 316.184c-22.467 0-41.561-8.424-54.617-16.418a7.735 7.735 0 018.077-13.193c13.954 8.542 35.844 17.69 60.894 12.735 4.189-.836 8.259 1.896 9.088 6.088a7.734 7.734 0 01-6.088 9.087 89.337 89.337 0 01-17.354 1.701z" fill="#c63d4f"/><path d="M204.705 488.504l-74.898 22.9a13.611 13.611 0 01-7.964 0l-74.898-22.9a13.619 13.619 0 01-9.637-13.023v-42.776a6.603 6.603 0 016.603-6.603h163.827a6.603 6.603 0 016.603 6.603v42.776a13.615 13.615 0 01-9.636 13.023z" fill="#dd636e"/><path d="M214.342 475.481v-42.776a6.603 6.603 0 00-6.603-6.603H166.99c-7.833 24.807-23.376 59.205-53.028 82.894l7.881 2.41c2.595.794 5.369.794 7.964 0l74.898-22.9a13.621 13.621 0 009.637-13.025z" fill="#c63d4f"/><path d="M179.01 353.291h-51.018c-4.272 0-7.735-3.462-7.735-7.735s3.463-7.735 7.735-7.735h51.018a7.735 7.735 0 110 15.47z" fill="#f1b986"/><path d="M257.208 59.589H74.081c-37.878 0-68.585 30.706-68.585 68.585V231.02c0 37.928 30.746 68.674 68.674 68.674 11.223 0 20.322-9.098 20.322-20.322V159.383c0-5.964 4.835-10.799 10.799-10.799H278.56c18.679 0 33.822-15.143 33.822-33.822 0-30.471-24.702-55.173-55.174-55.173z" fill="#365e7d"/><path d="M61.378 159.383v119.988c0 6.987-3.528 13.148-8.898 16.805a68.544 68.544 0 0021.69 3.517c11.223 0 20.322-9.098 20.322-20.322V159.383c0-5.964 4.835-10.799 10.799-10.799H72.177c-5.964 0-10.799 4.835-10.799 10.799zM257.208 59.589h-33.114c30.472 0 55.173 24.702 55.173 55.173 0 18.679-15.143 33.822-33.822 33.822h33.114c18.68 0 33.822-15.143 33.822-33.822.001-30.471-24.701-55.173-55.173-55.173zM149.93 476.785h-48.21a7.735 7.735 0 110-15.47h48.21c4.272 0 7.735 3.462 7.735 7.735s-3.463 7.735-7.735 7.735z" fill="#2b4d66"/><path d="M442.416 55.837L386.367.387a1.339 1.339 0 00-1.883 0l-56.049 55.45c-.85.841-.255 2.291.942 2.291h22.877a6.18 6.18 0 016.181 6.181v92.257a4.944 4.944 0 004.944 4.944h44.094a4.944 4.944 0 004.944-4.944V64.309a6.18 6.18 0 016.181-6.181h22.877c1.196 0 1.791-1.449.941-2.291z" fill="#80e29d"/><g fill="#66b49d"><path d="M391.009 64.309v97.201h16.463a4.944 4.944 0 004.944-4.944V64.309a6.18 6.18 0 016.181-6.181H397.19a6.181 6.181 0 00-6.181 6.181zM384.483.387l-9.762 9.658 48.603 48.084h18.15c1.196 0 1.792-1.449.942-2.291L386.367.388a1.339 1.339 0 00-1.884-.001z"/></g><path d="M476.497 182.889a7.734 7.734 0 01-7.735-7.735v-74.932a7.734 7.734 0 017.735-7.735 7.734 7.734 0 017.735 7.735v74.932a7.734 7.734 0 01-7.735 7.735z" fill="#80e29d"/><path d="M498.764 116.854a7.702 7.702 0 01-4.823-1.692l-17.444-13.936-17.444 13.936a7.735 7.735 0 01-10.871-1.215 7.734 7.734 0 011.215-10.871l22.272-17.794a7.734 7.734 0 019.656 0l22.272 17.794a7.735 7.735 0 01-4.833 13.778z" fill="#80e29d"/></svg>