<svg height="512" viewBox="0 0 24 24" width="512" xmlns="http://www.w3.org/2000/svg"><path d="M5 10.5V14h1c.99 0 1.87.49 2.42 1.24A4.46 4.46 0 0111.5 14h1c1.2 0 2.28.48 3.08 1.24.55-.75 1.43-1.24 2.42-1.24.35 0 .69.06 1 .18V10.5z" fill="#ffc107"/><path d="M12 13c-.717 0-7-.07-7-2.5v-4h14v4c0 2.43-6.283 2.5-7 2.5z" fill="#ffd54f"/><path d="M12 9c-.717 0-7-.07-7-2.5v-4h14v4C19 8.93 12.717 9 12 9z" fill="#ffc107"/><path d="M12 5c-.717 0-7-.07-7-2.5S11.283 0 12 0s7 .07 7 2.5S12.717 5 12 5z" fill="#ffd54f"/><path d="M5 10.5V14h1c.99 0 1.87.49 2.42 1.24A4.46 4.46 0 0111.5 14h.5v-1c-.717 0-7-.07-7-2.5z" fill="#dea806"/><path d="M5 6.5v4c0 2.43 6.283 2.5 7 2.5V9c-.717 0-7-.07-7-2.5z" fill="#deb945"/><path d="M5 2.5v4C5 8.93 11.283 9 12 9V5c-.717 0-7-.07-7-2.5z" fill="#dea806"/><path d="M12 0c-.717 0-7 .07-7 2.5S11.283 5 12 5z" fill="#deb945"/><g fill="#2196f3"><path d="M15 18.5c0-1.378-1.121-2.5-2.5-2.5h-1A2.503 2.503 0 009 18.5v3c0 1.378 1.121 2.5 2.5 2.5h1c.336 0 .656-.069.949-.189A.992.992 0 0014 24a.986.986 0 00.811-1.551A2.48 2.48 0 0015 21.5zm-4 3v-3a.5.5 0 01.5-.5h1a.5.5 0 01.5.5v2.155c-.384-.226-.878-.192-1.207.138s-.364.824-.138 1.207H11.5a.5.5 0 01-.5-.5zM21 24h-3a1 1 0 01-1-1v-6a1 1 0 112 0v5h2a1 1 0 110 2zM4.5 24H3a1 1 0 110-2h1.5a.5.5 0 000-1C3.121 21 2 19.878 2 18.5S3.121 16 4.5 16H6a1 1 0 110 2H4.5a.5.5 0 000 1C5.879 19 7 20.122 7 21.5S5.879 24 4.5 24z"/></g><path d="M15 20.063h-2v.593a1.041 1.041 0 00-.525-.145.96.96 0 00-.683.282.987.987 0 00-.138 1.207H11.5a.5.5 0 01-.5-.5v-1.437H9V21.5c0 1.378 1.121 2.5 2.5 2.5h1c.336 0 .656-.069.949-.189A.992.992 0 0014 24a.986.986 0 00.811-1.551A2.48 2.48 0 0015 21.5zM19 20.063h-2V23a1 1 0 001 1h3a1 1 0 100-2h-2zM6.544 20.063H2.55A2.495 2.495 0 004.5 21a.5.5 0 010 1H3a1 1 0 100 2h1.5C5.879 24 7 22.878 7 21.5c0-.535-.169-1.031-.456-1.437z" fill="#1d83d4"/></svg>