<svg width="132" height="48" fill="none" xmlns="http://www.w3.org/2000/svg"><path d="M9.291 0c1.715 0 3.242.394 4.58 1.183 1.354.79 2.417 1.913 3.19 3.37l-3.37 2.29c-.515-.875-1.133-1.552-1.853-2.032-.703-.498-1.56-.746-2.573-.746-.668 0-1.286.12-1.852.36a4.25 4.25 0 00-1.466.952 4.51 4.51 0 00-.978 1.492c-.223.583-.334 1.234-.334 1.955 0 .72.111 1.372.334 1.955.24.566.566 1.055.978 1.466.411.412.9.729 1.466.952a5.009 5.009 0 001.852.334c1.012 0 1.87-.24 2.573-.72.72-.497 1.338-1.183 1.852-2.058l3.37 2.29c-.772 1.457-1.835 2.58-3.19 3.37-1.355.788-2.89 1.183-4.605 1.183-1.286 0-2.486-.223-3.601-.669a8.963 8.963 0 01-2.907-1.852 8.857 8.857 0 01-1.955-2.778c-.463-1.08-.695-2.247-.695-3.5 0-1.251.232-2.409.695-3.472a8.775 8.775 0 011.955-2.804A9.268 9.268 0 015.69.669C6.804.223 8.005 0 9.29 0zM29.788 8.078h-3.756v9.21h-4.424v-9.21h-3.73V4.373h11.91v3.705zM38.651 17.982c-.651 1.44-1.415 2.504-2.29 3.19-.874.703-1.98 1.054-3.318 1.054-.411 0-.831-.034-1.26-.102-.429-.052-.832-.12-1.21-.206v-3.705c.31.017.584.026.824.026.24.017.463.026.669.026.514 0 .986-.086 1.415-.258.428-.171.797-.591 1.106-1.26l.206-.437-4.708-11.885h4.708l2.444 7.228 2.778-7.228h4.682L38.65 17.982zM60.561 20.914h-4.425v-3.627h-7.974v3.627h-4.425v-7.331h1.286a5.18 5.18 0 00.978-1.055c.291-.412.532-.892.72-1.44a8.657 8.657 0 00.438-1.956 18.84 18.84 0 00.154-2.572V4.425h10.856v9.158h2.392v7.331zM51.738 8.13c-.035 1.132-.163 2.152-.386 3.061a6.103 6.103 0 01-1.158 2.393h3.55V8.129h-2.006zM75.413 17.287H70.99V11.68l-6.946 5.917h-1.415V4.425h4.425v5.608l6.945-5.917h1.415v13.171zM90.519 17.287h-4.425V14.56h-1.62l-2.29 2.727H77.27l3.087-3.91a4.628 4.628 0 01-1.338-1.595c-.325-.652-.488-1.415-.488-2.29 0-.823.145-1.552.437-2.186a4.49 4.49 0 011.235-1.57 5.374 5.374 0 011.8-.977 7.362 7.362 0 012.239-.334h6.277v12.862zM84.576 8.13c-.394 0-.754.103-1.08.309-.309.188-.463.523-.463 1.003 0 .48.154.84.463 1.08.326.223.686.335 1.08.335h1.518V8.129h-1.518zM5.252 36.115l4.322-5.608h4.914l-4.63 5.814 4.938 7.049H9.883l-4.63-6.689v6.689H.827V30.507h4.424v5.608zM22.202 30.198c.96 0 1.87.172 2.727.515a7.005 7.005 0 012.238 1.415 6.479 6.479 0 011.492 2.135c.378.823.566 1.715.566 2.675 0 .96-.189 1.852-.566 2.676a6.48 6.48 0 01-1.492 2.135 7.005 7.005 0 01-2.238 1.415 7.273 7.273 0 01-2.727.514 7.342 7.342 0 01-2.752-.514 7.077 7.077 0 01-2.213-1.415 7.029 7.029 0 01-1.492-2.135 6.6 6.6 0 01-.54-2.676c0-.96.18-1.852.54-2.675a7.028 7.028 0 011.492-2.135 7.077 7.077 0 012.213-1.415 7.342 7.342 0 012.752-.515zm.026 4.065c-.755 0-1.364.248-1.827.746-.445.497-.668 1.14-.668 1.93 0 .805.223 1.457.668 1.954.463.48 1.072.72 1.827.72.703 0 1.286-.24 1.75-.72.48-.497.72-1.149.72-1.955 0-.789-.24-1.432-.72-1.93-.464-.497-1.047-.745-1.75-.745zM46.42 43.37h-4.424v-4.605l-2.316 2.444h-1.414l-2.264-2.419v4.58h-4.425V30.198h1.415l5.994 6.457 6.07-6.457h1.364V43.37zM60.756 30.198c1.046.017 2.024.172 2.933.463.926.292 1.732.72 2.418 1.287a6.058 6.058 0 011.62 2.083c.395.824.592 1.775.592 2.856 0 1.08-.197 2.04-.591 2.881a6.25 6.25 0 01-1.621 2.135c-.686.566-1.492 1.003-2.418 1.312-.91.292-1.887.446-2.933.463V48h-4.425v-4.322a9.811 9.811 0 01-2.958-.489 7.517 7.517 0 01-2.392-1.312 6.32 6.32 0 01-1.621-2.109c-.395-.84-.592-1.8-.592-2.881 0-1.08.197-2.032.592-2.856a5.81 5.81 0 011.62-2.058 7.145 7.145 0 012.393-1.286 9.808 9.808 0 012.958-.489v-6.122h4.425v6.122zm-.129 3.705v6.07h.078c1.029 0 1.843-.248 2.443-.745.6-.498.9-1.26.9-2.29 0-1.012-.3-1.766-.9-2.264-.6-.514-1.415-.771-2.444-.771h-.077zm-7.563 3.035c0 1.03.3 1.792.9 2.29.6.497 1.407.746 2.419.746h.077v-6.071h-.077c-1.012 0-1.818.257-2.418.771-.6.498-.9 1.252-.9 2.264zM76.918 30.198c.96 0 1.87.172 2.727.515a7.005 7.005 0 012.238 1.415 6.479 6.479 0 011.492 2.135c.377.823.566 1.715.566 2.675 0 .96-.189 1.852-.566 2.676a6.48 6.48 0 01-1.492 2.135 7.005 7.005 0 01-2.238 1.415 7.274 7.274 0 01-2.727.514 7.342 7.342 0 01-2.752-.514 7.077 7.077 0 01-2.213-1.415 7.029 7.029 0 01-1.492-2.135 6.6 6.6 0 01-.54-2.676c0-.96.18-1.852.54-2.675a7.028 7.028 0 011.492-2.135 7.077 7.077 0 012.213-1.415 7.342 7.342 0 012.752-.515zm.026 4.065c-.755 0-1.364.248-1.827.746-.446.497-.669 1.14-.669 1.93 0 .805.224 1.457.67 1.954.462.48 1.071.72 1.826.72.703 0 1.286-.24 1.75-.72.48-.497.72-1.149.72-1.955 0-.789-.24-1.432-.72-1.93-.464-.497-1.047-.745-1.75-.745zM94.01 30.198c.892 0 1.715.172 2.47.515a5.354 5.354 0 011.955 1.389 6.224 6.224 0 011.286 2.11c.309.823.463 1.723.463 2.7 0 .978-.154 1.887-.463 2.727a6.515 6.515 0 01-1.286 2.136 5.625 5.625 0 01-1.955 1.414 6.162 6.162 0 01-2.47.49c-1.406 0-2.504-.395-3.292-1.184V48h-4.425V30.507h4.039v1.338c.394-.532.9-.935 1.518-1.21.617-.29 1.337-.437 2.16-.437zm-.874 4.013c-.309 0-.618.052-.926.155a2.281 2.281 0 00-.798.489 2.824 2.824 0 00-.566.848c-.137.343-.206.746-.206 1.21 0 .463.069.866.206 1.209.155.343.343.634.566.874.24.223.506.395.798.515.308.103.617.154.926.154.326 0 .634-.051.926-.154a2.28 2.28 0 00.797-.515c.24-.24.43-.531.566-.874.155-.343.232-.738.232-1.184 0-.446-.069-.84-.206-1.183a2.306 2.306 0 00-.566-.849 1.886 1.886 0 00-.797-.514 2.604 2.604 0 00-.952-.18zM113.018 34.16h-3.756v9.21h-4.425v-9.21h-3.73v-3.704h11.911v3.704zM120.237 30.198c.875 0 1.673.12 2.393.36.72.24 1.329.6 1.826 1.08.515.464.909 1.056 1.184 1.776.291.72.437 1.552.437 2.495v7.46h-4.039V42.34a4.933 4.933 0 01-1.62.978c-.618.24-1.312.36-2.084.36-.721 0-1.364-.103-1.93-.308a4.38 4.38 0 01-1.389-.875 3.933 3.933 0 01-.823-1.286 4.106 4.106 0 01-.283-1.518c0-1.218.446-2.161 1.338-2.83.909-.669 2.144-1.003 3.704-1.003h2.701v-.206c0-.463-.154-.849-.463-1.158-.291-.325-.789-.488-1.492-.488-.617 0-1.175.137-1.672.411-.48.275-.995.66-1.543 1.158l-2.058-2.804c.84-.858 1.715-1.5 2.624-1.93.926-.428 1.989-.643 3.189-.643zm-.54 10.342c.549 0 1.012-.163 1.389-.489.378-.326.566-.789.566-1.39v-.102h-2.083c-.789 0-1.184.326-1.184.977a.93.93 0 00.335.746c.223.172.548.258.977.258z" fill="#6C2A94"/><path fill-rule="evenodd" clip-rule="evenodd" d="M101.023 13.774a68.736 68.736 0 00-3.902-1.247s1.136-.853 2.822-2.1a471.72 471.72 0 018.39-6.082 149.54 149.54 0 012.571-1.774 53.04 53.04 0 011.674-1.088c1.519-.939 2.078-1.082.766.278-.473.49-.722.987-.785 1.483-.076.601.119 1.203.518 1.794 1.68 2.494 6.967 4.811 10.664 6.188 2.187.815 3.818 1.3 3.818 1.3s-1.109.856-2.75 2.106a467.864 467.864 0 01-7.963 5.944c-.945.685-1.841 1.324-2.634 1.873-.594.412-1.129.772-1.582 1.062-1.562 1-2.146 1.169-.779-.277.448-.474.694-.95.771-1.423.105-.638-.097-1.272-.526-1.892-1.746-2.523-7.248-4.804-11.073-6.145zm2.782-2.064c1.586.572 3.406 1.287 5.159 2.11 2.18 1.026 4.548 2.353 6.129 3.926a500.44 500.44 0 005.93-4.444c-1.564-.594-3.371-1.341-5.109-2.2-2.098-1.036-4.367-2.367-5.884-3.922a510.882 510.882 0 00-6.225 4.53z" fill="#6C2A94"/></svg>