<svg xmlns="http://www.w3.org/2000/svg" viewBox="0 0 512 512"><path d="M436 0H76c-8.284 0-15 6.716-15 15v482c0 8.284 6.716 15 15 15h360c8.284 0 15-6.716 15-15V15c0-8.284-6.716-15-15-15z" fill="#f1f6f5"/><path d="M436 0H256v512h180c8.284 0 15-6.716 15-15V15c0-8.284-6.716-15-15-15z" fill="#d4e1dc"/><path d="M196 90h-60c-8.284 0-15-6.716-15-15s6.716-15 15-15h60c8.284 0 15 6.716 15 15s-6.716 15-15 15z" fill="#2eddfd"/><path d="M216 182h-80c-8.284 0-15 6.716-15 15v80c0 8.284 6.716 15 15 15h80c8.284 0 15-6.716 15-15v-80c0-8.284-6.716-15-15-15z" fill="#52f785"/><g fill="#5a6060"><path d="M226 362h-50c-8.284 0-15-6.716-15-15s6.716-15 15-15h50c8.284 0 15 6.716 15 15s-6.716 15-15 15zM226 402h-90c-8.284 0-15-6.716-15-15s6.716-15 15-15h90c8.284 0 15 6.716 15 15s-6.716 15-15 15zM226 442h-90c-8.284 0-15-6.716-15-15s6.716-15 15-15h90c8.284 0 15 6.716 15 15s-6.716 15-15 15z"/></g><g fill="#424545"><path d="M336 212h-50c-8.284 0-15-6.716-15-15s6.716-15 15-15h50c8.284 0 15 6.716 15 15s-6.716 15-15 15zM376 252h-90c-8.284 0-15-6.716-15-15s6.716-15 15-15h90c8.284 0 15 6.716 15 15s-6.716 15-15 15zM336 292h-50c-8.284 0-15-6.716-15-15s6.716-15 15-15h50c8.284 0 15 6.716 15 15s-6.716 15-15 15z"/></g><g fill="#268dc6"><path d="M376 90h-20c-8.284 0-15-6.716-15-15s6.716-15 15-15h20c8.284 0 15 6.716 15 15s-6.716 15-15 15zM316 90h-20c-8.284 0-15-6.716-15-15s6.716-15 15-15h20c8.284 0 15 6.716 15 15s-6.716 15-15 15z"/></g><path d="M376 332h-80c-8.284 0-15 6.716-15 15v80c0 8.284 6.716 15 15 15h80c8.284 0 15-6.716 15-15v-80c0-8.284-6.716-15-15-15z" fill="#46d989"/></svg>