<svg xmlns="http://www.w3.org/2000/svg" viewBox="0 0 512 512"><path d="M359.217 10.199h-69.846c-70.763 0-142.167 52.255-142.167 168.995 0 60.468 25.628 107.564 72.606 134.347l-85.983 155.633c-4.078 7.36-4.184 15.702-.286 22.314 3.805 6.457 10.763 10.312 18.605 10.312h43.496c9.881 0 17.585-4.776 21.281-13.143l80.62-157.689h5.884v151.179c0 10.654 8.991 19.653 19.631 19.653h37.998c11.934 0 20.265-8.333 20.265-20.263V31.71c.001-12.665-9.088-21.511-22.104-21.511zm-55.791 250.723h-10.379c-40.245 0-64.27-32.852-64.27-87.877 0-68.42 30.35-92.797 58.756-92.797h15.893v180.674z" fill="#ea163f"/><g fill="#9c0e2b"><path d="M361.056 512h-37.998c-16.17 0-29.832-13.671-29.832-29.853V361.816l-67.103 131.252C220.755 504.929 209.385 512 195.642 512h-43.496c-11.495 0-21.734-5.732-27.392-15.333-5.751-9.758-5.694-21.882.151-32.434l81.264-147.09c-44.696-29.34-69.164-77.926-69.164-137.949 0-56.422 16.393-103.228 47.408-135.358C211.701 15.568 248.975 0 289.371 0h69.845c8.967 0 17.152 3.16 23.047 8.897 5.97 5.809 9.257 13.913 9.256 22.815v449.827c.001 17.65-12.811 30.461-30.463 30.461zm-63.514-191.23h5.884c5.633 0 10.199 4.567 10.199 10.199v151.178c0 5.036 4.408 9.455 9.433 9.455h37.998c6.302 0 10.066-3.761 10.066-10.064V31.71c0-3.398-1.066-6.232-3.084-8.196-2.095-2.038-5.144-3.116-8.82-3.116h-69.845c-65.687 0-131.967 49.101-131.967 158.794 0 56.933 23.327 100.327 67.459 125.487 4.847 2.764 6.574 8.909 3.876 13.792l-85.984 155.634c-2.314 4.177-2.471 8.734-.426 12.203 1.983 3.364 5.562 5.291 9.819 5.291h43.496c5.86 0 9.881-2.376 11.95-7.064.078-.176.161-.351.249-.522l80.62-157.689a10.192 10.192 0 019.077-5.554zm5.884-49.649h-10.379c-23.133 0-42.31-9.503-55.46-27.482-12.436-17.005-19.01-41.416-19.01-70.595 0-33.754 7.001-60.073 20.806-78.229 12.145-15.971 29.245-24.767 48.148-24.767h15.894c5.633 0 10.199 4.567 10.199 10.199v180.675c.002 5.633-4.565 10.199-10.198 10.199zM287.532 90.448c-23.473 0-48.556 21.698-48.556 82.597 0 49.365 19.709 77.678 54.072 77.678h.18V90.448h-5.696z"/><path d="M351.879 345.753c-5.633 0-10.199-4.567-10.199-10.199v-4.08c0-5.632 4.566-10.199 10.199-10.199s10.199 4.567 10.199 10.199v4.08c0 5.632-4.566 10.199-10.199 10.199zM351.879 482.422c-5.633 0-10.199-4.567-10.199-10.199V371.251c0-5.632 4.566-10.199 10.199-10.199s10.199 4.567 10.199 10.199v100.972c0 5.632-4.566 10.199-10.199 10.199z"/></g></svg>