<?xml version="1.0" standalone="no"?>
<!DOCTYPE svg PUBLIC "-//W3C//DTD SVG 20010904//EN"
 "http://www.w3.org/TR/2001/REC-SVG-20010904/DTD/svg10.dtd">
<svg version="1.0" xmlns="http://www.w3.org/2000/svg"
 width="512.000000pt" height="512.000000pt" viewBox="0 0 512.000000 512.000000"
 preserveAspectRatio="xMidYMid meet">
<metadata>
Created by potrace 1.11, written by Peter Selinger 2001-2013
</metadata>
<g transform="translate(0.000000,512.000000) scale(0.100000,-0.100000)"
fill="#000000" stroke="none">
<path d="M590 5111 c-91 -28 -174 -104 -206 -187 -18 -48 -19 -111 -19 -2364
0 -2253 1 -2316 19 -2364 24 -63 86 -130 151 -164 l50 -27 1975 0 1975 0 50
27 c64 34 118 90 147 153 l23 50 3 2320 c2 2031 0 2326 -13 2370 -17 62 -79
136 -139 168 l-41 22 -1975 2 c-1086 1 -1986 -2 -2000 -6z m2600 -466 l0 -275
29 -32 29 -33 281 -3 281 -3 0 -718 0 -718 26 -27 c29 -28 87 -36 126 -15 48
26 48 27 48 833 0 509 -3 764 -11 783 -5 15 -112 130 -237 256 l-226 227 487
0 488 0 24 -25 25 -24 0 -2291 c0 -2028 -2 -2294 -15 -2320 -29 -56 -50 -60
-316 -60 -226 0 -241 1 -233 18 5 9 10 385 12 834 3 907 5 872 -61 904 -42 20
-79 13 -113 -21 l-24 -24 0 -798 c0 -529 -4 -811 -11 -836 -7 -26 -21 -44 -42
-57 -31 -20 -64 -20 -1569 -20 -974 0 -1546 4 -1562 10 -14 5 -35 24 -46 42
-20 33 -20 52 -20 2308 0 2258 0 2275 20 2308 11 18 30 37 43 42 12 5 563 9
1295 9 l1272 1 0 -275z m460 -137 c0 -5 -58 -8 -130 -8 l-130 0 0 137 0 138
130 -130 c72 -71 130 -133 130 -137z"/>
<path d="M2827 4411 c-99 -76 -138 -91 -236 -91 -75 0 -169 20 -401 85 -65 18
-188 20 -262 3 -29 -7 -127 -50 -217 -96 -152 -78 -170 -85 -245 -92 -96 -9
-122 -18 -171 -61 -80 -71 -111 -176 -109 -379 2 -145 17 -271 55 -450 l20
-95 -23 -15 c-51 -32 -98 -91 -113 -142 -19 -65 -19 -91 1 -157 18 -63 90
-142 146 -160 34 -11 35 -13 52 -96 44 -227 186 -402 441 -545 l89 -49 -34
-14 c-19 -8 -69 -27 -110 -43 -91 -34 -117 -50 -125 -75 -6 -17 -17 -19 -144
-19 -76 0 -163 -5 -192 -10 -116 -22 -216 -99 -276 -211 l-28 -54 -3 -348 -3
-348 30 -29 29 -30 1187 0 1187 0 29 30 30 29 -3 343 -3 343 -27 57 c-52 112
-159 195 -282 217 -33 6 -120 11 -193 11 -73 0 -133 4 -133 8 0 24 -51 55
-160 98 l-121 47 87 46 c168 89 315 230 383 368 31 62 71 196 71 238 0 17 9
25 38 33 53 16 109 66 139 126 53 102 29 226 -59 308 l-40 37 27 76 c47 137
66 249 72 427 8 232 -17 346 -120 558 -65 132 -109 180 -163 180 -33 0 -53
-10 -117 -59z m-638 -216 c165 -49 313 -77 411 -78 108 -1 164 14 255 69 32
19 62 31 66 27 17 -18 72 -164 90 -238 21 -90 25 -257 9 -365 -14 -88 -51
-240 -59 -240 -3 1 -62 84 -131 187 -69 102 -136 194 -149 204 -53 42 -132 11
-151 -61 -6 -21 -21 -48 -35 -58 -52 -41 -122 -46 -552 -38 -398 6 -406 6
-439 -14 -18 -12 -46 -39 -62 -61 l-29 -39 -11 92 c-21 176 -23 223 -13 301 6
42 17 91 26 107 14 27 20 30 63 30 79 0 160 27 302 102 74 39 153 77 175 84
63 20 144 16 234 -11z m727 -1112 c15 -14 38 -23 57 -23 44 0 77 -25 77 -57 0
-41 -27 -63 -76 -63 -31 0 -51 -7 -73 -25 -31 -27 -35 -40 -60 -203 -14 -95
-56 -175 -132 -257 -93 -99 -261 -201 -386 -234 -78 -21 -97 -72 -68 -181 l15
-55 -28 -23 c-51 -43 -56 -43 -101 -10 -38 28 -42 34 -37 62 3 17 9 56 12 86
9 77 -10 98 -124 139 -159 57 -318 170 -395 283 -48 69 -73 142 -86 250 -16
132 -43 168 -126 168 -37 0 -75 28 -75 55 0 27 47 65 79 65 48 0 83 43 121
145 18 50 46 116 62 148 l29 59 162 -7 c89 -4 266 -7 392 -8 258 -2 338 9 430
62 l49 28 129 -191 c70 -105 139 -201 153 -213z m-940 -1260 l63 -46 -45 -56
c-81 -101 -93 -115 -98 -110 -3 2 -25 53 -50 112 l-45 108 42 19 c23 10 48 19
56 19 7 1 42 -20 77 -46z m541 31 c24 -9 43 -21 43 -27 0 -16 -83 -217 -90
-217 -5 0 -93 104 -132 157 -6 7 12 26 54 57 35 25 67 46 73 46 5 0 29 -7 52
-16z m-812 -320 c70 -175 96 -218 138 -226 57 -11 81 8 207 162 67 83 126 152
130 155 4 3 65 -65 134 -149 69 -85 136 -158 149 -162 44 -14 81 -6 107 23 14
15 56 106 95 201 l69 172 185 0 c178 0 186 -1 227 -25 28 -16 49 -39 63 -68
20 -40 21 -60 21 -285 l0 -242 -1045 0 -1045 0 0 245 c0 225 2 249 20 285 18
36 55 70 90 83 8 3 98 6 200 6 l185 1 70 -176z"/>
<path d="M1748 3123 c-39 -25 -48 -54 -48 -159 0 -92 1 -97 29 -125 23 -23 38
-29 71 -29 33 0 48 6 71 29 28 29 29 32 29 131 l0 102 -34 34 c-38 38 -75 44
-118 17z"/>
<path d="M2525 3128 c-47 -25 -55 -48 -55 -156 0 -101 1 -104 29 -133 22 -22
39 -29 68 -29 81 0 107 46 102 180 -4 89 -5 93 -37 121 -34 31 -72 37 -107 17z"/>
<path d="M2008 2601 c-45 -40 -45 -94 -2 -148 92 -113 266 -113 358 0 43 54
43 108 -2 148 -44 39 -90 39 -135 -1 -19 -16 -39 -30 -45 -30 -6 0 -24 14 -40
30 -41 41 -89 41 -134 1z"/>
<path d="M3839 2471 c-62 -62 -20 -171 65 -171 25 0 45 9 68 29 27 24 33 36
33 71 0 35 -6 47 -33 71 -44 40 -93 40 -133 0z"/>
<path d="M993 685 c-39 -17 -53 -42 -53 -93 0 -33 6 -45 31 -66 l31 -26 1185
0 1185 0 29 29 c48 49 35 126 -26 156 -29 13 -166 15 -1192 15 -962 -1 -1163
-3 -1190 -15z"/>
</g>
</svg>
