<svg class="logo-svg" width="232" height="65" viewBox="0 0 231 65" fill="none" xmlns="http://www.w3.org/2000/svg">
        <path fill-rule="evenodd" clip-rule="evenodd" d="M21.019 30.498C19.9047 29.1782 19.1617 27.5857 18.8661 25.8839C18.5705 24.1821 18.733 22.4323 19.337 20.814C19.169 17.645 13.908 8.9 13.908 8.9C16.5196 12.5458 18.6618 16.506 20.284 20.687C23.984 26.736 21.019 30.498 21.019 30.498ZM16.219 23.36C16.219 23.36 12.83 20.46 13.874 13.405C12.457 9.354 7.297 4.898 7.297 4.898C10.751 7.1021 13.3693 10.3973 14.736 14.26C19.458 21.098 16.22 23.361 16.22 23.361L16.219 23.36ZM12.172 18.614C12.172 18.614 8.072 16.602 5.496 9.597C4.96 8.262 0.341003 0.985001 0.341003 0.985001C0.341003 0.985001 5.30901 8.023 6.32001 9.034C11.7 14.125 12.173 18.614 12.173 18.614H12.172ZM6.784 18.253C13.726 19.846 15.122 24.11 15.122 24.11C15.122 24.11 11.785 26.343 7.24701 19.381C4.17782 16.6534 2.11933 12.9695 1.405 8.926C1.405 8.926 3.568 15.433 6.785 18.253H6.784ZM20.076 31.238C20.076 31.238 15.393 32.69 11.168 26.969C7.88074 23.9 5.00451 20.4184 2.61099 16.611C2.61099 16.611 8.75301 24.799 11.656 26.111C13.394 26.1157 15.0975 26.5961 16.582 27.5001C18.0664 28.404 19.2751 29.6971 20.077 31.239L20.076 31.238Z" fill="#FFB715"></path>
        <path fill-rule="evenodd" clip-rule="evenodd" d="M34.837 43.375L36.68 42.308C36.7609 42.2608 36.8318 42.198 36.8885 42.1234C36.9451 42.0488 36.9865 41.9637 37.0103 41.8731C37.0341 41.7824 37.0398 41.688 37.027 41.5951C37.0143 41.5023 36.9833 41.4129 36.936 41.332L32.325 33.319C32.2787 33.2382 32.2169 33.1673 32.1431 33.1105C32.0693 33.0537 31.985 33.012 31.8951 32.9878C31.8051 32.9637 31.7113 32.9575 31.6189 32.9697C31.5266 32.9819 31.4376 33.0123 31.357 33.059L29.514 34.126C29.3507 34.2205 29.2316 34.376 29.1829 34.5582C29.1341 34.7405 29.1597 34.9346 29.254 35.098L29.754 35.962C29.2068 36.1557 28.6062 36.1332 28.075 35.899C25.781 35.187 22.551 35.128 21.336 35.899C21.0469 36.2228 20.681 36.4687 20.272 36.614C19.2377 36.723 18.1997 36.4443 17.359 35.832L17.78 35.102C17.8737 34.9385 17.899 34.7445 17.8503 34.5624C17.8016 34.3803 17.6829 34.2249 17.52 34.13L15.677 33.063C15.5964 33.0163 15.5073 32.9859 15.4149 32.9737C15.3224 32.9614 15.2285 32.9676 15.1385 32.9917C15.0485 33.0159 14.9641 33.0576 14.8902 33.1144C14.8164 33.1713 14.7544 33.2422 14.708 33.323L10.097 41.336C10.0027 41.4994 9.97717 41.6935 10.0259 41.8758C10.0747 42.058 10.1937 42.2135 10.357 42.308L12.2 43.376C12.2807 43.4227 12.3699 43.453 12.4623 43.4652C12.5548 43.4773 12.6487 43.4711 12.7387 43.4468C12.8288 43.4226 12.9131 43.3808 12.987 43.3238C13.0608 43.2669 13.1227 43.1959 13.169 43.115L13.6 42.365L15.593 44.026L15.327 44.292C15.2021 44.3976 15.1018 44.5292 15.033 44.6775C14.9641 44.8259 14.9285 44.9875 14.9285 45.151C14.9285 45.3145 14.9641 45.4761 15.033 45.6245C15.1018 45.7728 15.2021 45.9044 15.327 46.01L15.612 46.295C15.8205 46.4977 16.0731 46.6493 16.35 46.738C16.4155 47.0041 16.554 47.2465 16.75 47.438L16.793 47.477C16.8972 47.6231 17.0379 47.7393 17.2011 47.8139C17.3644 47.8885 17.5443 47.9189 17.723 47.902C17.746 48.2652 17.9053 48.6062 18.169 48.857L18.212 48.9C18.412 49.1055 18.679 49.2326 18.9646 49.2583C19.2502 49.284 19.5356 49.2066 19.769 49.04L20.34 49.612C20.4517 49.7258 20.585 49.8163 20.7321 49.878C20.8791 49.9397 21.037 49.9715 21.1965 49.9715C21.356 49.9715 21.5139 49.9397 21.661 49.878C21.808 49.8163 21.9413 49.7258 22.053 49.612L22.179 49.485C23.0137 49.7511 23.873 49.9327 24.744 50.027C26.183 50.166 27.083 49.466 26.909 48.966C27.774 49.199 29.018 48.575 28.839 47.575C29.0247 47.601 29.2138 47.5852 29.3927 47.5289C29.5716 47.4726 29.7356 47.3771 29.873 47.2495C30.0103 47.1218 30.1175 46.9651 30.1867 46.7909C30.2559 46.6166 30.2854 46.4291 30.273 46.242C30.614 46.2304 30.9513 46.1667 31.273 46.053C31.4991 45.9618 31.7044 45.8256 31.8763 45.6527C32.0482 45.4797 32.1832 45.2737 32.273 45.047C32.3372 44.8533 32.3578 44.6478 32.3334 44.4452C32.309 44.2427 32.2403 44.048 32.132 43.875C32.7418 43.6383 33.258 43.2097 33.603 42.654L33.868 43.114C33.9143 43.1949 33.9762 43.2659 34.0501 43.3228C34.1239 43.3798 34.2082 43.4216 34.2983 43.4458C34.3883 43.4701 34.4823 43.4763 34.5747 43.4642C34.6672 43.452 34.7563 43.4217 34.837 43.375ZM20.941 49.217L20.69 48.965C20.6067 48.8965 20.5395 48.8106 20.493 48.7134C20.4465 48.6161 20.4219 48.5098 20.421 48.402L21.433 47.387C21.6106 47.3743 21.788 47.4132 21.944 47.499C22.0346 47.5722 22.1077 47.6648 22.1579 47.7699C22.2081 47.875 22.2342 47.99 22.2342 48.1065C22.2342 48.223 22.2081 48.338 22.1579 48.4431C22.1077 48.5482 22.0346 48.6408 21.944 48.714L21.797 48.861C21.6865 48.976 21.5534 49.067 21.4061 49.1282C21.2588 49.1895 21.1005 49.2197 20.941 49.217ZM18.7265 48.3672C18.6215 48.3158 18.5297 48.2412 18.458 48.149C18.397 48.0192 18.3793 47.8742 18.4076 47.7336C18.4359 47.593 18.5086 47.4651 18.615 47.369L20.259 45.719C20.3458 45.6456 20.4558 45.6054 20.5695 45.6054C20.6832 45.6054 20.7932 45.6456 20.88 45.719C20.9792 45.7863 21.0604 45.8768 21.1166 45.9827C21.1727 46.0886 21.2021 46.2066 21.2021 46.3265C21.2021 46.4464 21.1727 46.5644 21.1166 46.6703C21.0604 46.7762 20.9792 46.8667 20.88 46.934L19.669 48.149C19.5973 48.2412 19.5055 48.3158 19.4005 48.3672C19.2956 48.4185 19.1803 48.4452 19.0635 48.4452C18.9467 48.4452 18.8314 48.4185 18.7265 48.3672ZM17.8151 47.0041C17.6407 47.0409 17.4588 47.0124 17.304 46.924C17.057 46.665 17.108 46.362 17.497 45.975L19.062 44.397C19.114 44.3176 19.1812 44.2493 19.2599 44.1961C19.3385 44.143 19.427 44.106 19.5201 44.0874C19.6132 44.0688 19.709 44.0689 19.8021 44.0877C19.8951 44.1065 19.9835 44.1437 20.062 44.197C20.388 44.49 19.954 45.014 19.815 45.153L18.25 46.724C18.1443 46.8675 17.9895 46.9672 17.8151 47.0041ZM16.521 45.97C16.3577 45.9415 16.2051 45.8696 16.079 45.762C15.9796 45.6945 15.8982 45.6048 15.842 45.4986C15.7857 45.3925 15.7563 45.2741 15.7563 45.154C15.7563 45.0339 15.7857 44.9155 15.842 44.8094C15.8982 44.7032 15.9796 44.6125 16.079 44.545L16.226 44.397C16.3029 44.313 16.3965 44.2459 16.5007 44.2C16.6049 44.1541 16.7176 44.1304 16.8315 44.1304C16.9454 44.1304 17.0581 44.1541 17.1623 44.2C17.2665 44.2459 17.3601 44.313 17.437 44.397C17.5078 44.4518 17.56 44.5271 17.5863 44.6127C17.6126 44.6983 17.6118 44.7899 17.584 44.875L16.75 45.719C16.6645 45.7938 16.5876 45.878 16.521 45.97ZM15.63 33.856L16.858 34.568C16.9396 34.6153 16.9992 34.693 17.0236 34.7841C17.0479 34.8752 17.0351 34.9723 16.988 35.054L12.732 42.454C12.7087 42.4944 12.6777 42.5298 12.6407 42.5582C12.6037 42.5866 12.5615 42.6074 12.5164 42.6195C12.4714 42.6315 12.4244 42.6346 12.3782 42.6285C12.3319 42.6224 12.2874 42.6073 12.247 42.584L11.018 41.872C10.9367 41.8244 10.8776 41.7466 10.8534 41.6556C10.8293 41.5645 10.8421 41.4676 10.889 41.386L15.145 33.986C15.1683 33.9456 15.1993 33.9102 15.2363 33.8818C15.2733 33.8534 15.3155 33.8326 15.3606 33.8205C15.4056 33.8085 15.4526 33.8054 15.4988 33.8115C15.545 33.8175 15.5896 33.8327 15.63 33.856ZM16.945 36.552C17.3424 37.002 17.8994 37.2796 18.498 37.326C18.7604 37.3495 19.0008 37.3331 19.2266 37.3177C19.4707 37.3011 19.6978 37.2856 19.917 37.323C19.498 37.77 18.498 39.102 18.498 39.102C18.2849 39.3494 18.1678 39.665 18.1678 39.9915C18.1678 40.318 18.2849 40.6336 18.498 40.881C19.292 41.681 20.626 40.881 20.626 40.881C20.626 40.881 22.419 39.407 22.965 39.059C23.1402 38.9292 23.3525 38.8591 23.5705 38.8591C23.7885 38.8591 24.0008 38.9292 24.176 39.059C24.473 39.237 30.719 43.137 31.166 43.937C32.046 45.254 30.209 45.644 29.453 44.944L26.719 42.913C26.044 42.432 25.367 42.998 25.967 43.52L29.485 46.004C29.5019 46.1333 29.4838 46.2648 29.4326 46.3847C29.3813 46.5047 29.2989 46.6087 29.1938 46.6859C29.0887 46.7631 28.9648 46.8107 28.835 46.8237C28.7053 46.8368 28.5744 46.8148 28.456 46.76L25.343 44.76C24.72 44.313 24.299 45.024 24.976 45.445L28.068 47.402C28.065 47.5263 28.0341 47.6482 27.9775 47.7589C27.921 47.8696 27.8402 47.9662 27.7413 48.0414C27.6424 48.1167 27.5279 48.1688 27.4061 48.1938C27.2844 48.2188 27.1586 48.2162 27.038 48.186L24.279 46.894C23.656 46.447 23.235 47.158 23.912 47.579C23.912 47.579 25.121 48.247 26.121 48.679C25.968 49.216 25.268 49.303 24.555 49.253C23.9603 49.1483 23.3715 49.0124 22.791 48.846C22.9894 48.6207 23.0908 48.3261 23.073 48.0264C23.0552 47.7267 22.9197 47.4462 22.696 47.246L22.079 46.628C22.1416 46.4122 22.1318 46.1819 22.0511 45.9722C21.9703 45.7625 21.8231 45.5851 21.632 45.467L21.589 45.424C21.3999 45.2223 21.1858 45.0455 20.952 44.898C21.0379 44.683 21.0467 44.4449 20.9766 44.2242C20.9066 44.0036 20.7622 43.8141 20.568 43.688L20.525 43.645C20.4171 43.5246 20.2851 43.4283 20.1375 43.3624C19.99 43.2965 19.8301 43.2624 19.6685 43.2624C19.5069 43.2624 19.347 43.2965 19.1995 43.3624C19.0519 43.4283 18.9199 43.5246 18.812 43.645L18.25 44.209L17.687 43.645C17.4922 43.4258 17.2206 43.2898 16.9284 43.2653C16.6362 43.2407 16.3457 43.3294 16.117 43.513L13.991 41.685L16.945 36.552ZM26.9633 36.6284C27.6396 36.8015 28.2978 36.97 28.784 36.97V36.975C29.262 37.0027 29.7376 36.8886 30.151 36.647L33.178 41.907C32.9663 42.2472 32.6851 42.5389 32.3529 42.763C32.0206 42.987 31.6448 43.1383 31.25 43.207C30.429 41.888 24.429 38.307 24.429 38.307C24.1851 38.1142 23.8834 38.0093 23.5725 38.0093C23.2616 38.0093 22.9599 38.1142 22.716 38.307C22.716 38.307 21.267 39.476 20.274 40.172C19.281 40.868 18.795 40.149 19.564 39.104C19.9723 38.4622 20.448 37.8658 20.983 37.325C21.4126 36.7521 22.0487 36.3694 22.756 36.258C23.4645 36.2078 24.1756 36.2078 24.884 36.258C25.4654 36.245 26.2251 36.4394 26.9633 36.6284ZM31.892 33.983L36.148 41.383H36.15C36.1967 41.465 36.209 41.5622 36.1843 41.6532C36.1596 41.7443 36.0998 41.8219 36.018 41.869L34.789 42.581C34.7487 42.6043 34.7042 42.6194 34.6581 42.6255C34.6119 42.6315 34.565 42.6285 34.5201 42.6164C34.4751 42.6043 34.433 42.5835 34.3961 42.5551C34.3592 42.5267 34.3282 42.4913 34.305 42.451L30.049 35.051C30.0018 34.9694 29.9889 34.8724 30.013 34.7813C30.0372 34.6902 30.0965 34.6124 30.178 34.565L31.407 33.853C31.4474 33.8297 31.492 33.8145 31.5382 33.8085C31.5844 33.8024 31.6314 33.8055 31.6764 33.8175C31.7215 33.8296 31.7637 33.8504 31.8007 33.8788C31.8377 33.9072 31.8687 33.9426 31.892 33.983Z" fill="white"></path>
        <mask id="mask0" mask-type="alpha" maskUnits="userSpaceOnUse" x="0" y="17" width="48" height="48">
            <path d="M5.4746 25.7419C1.9995 29.9611 0.0687789 35.2402 0.00180175 40.7059C-0.0651754 46.1716 1.73561 51.4964 5.10627 55.7996C8.47693 60.1027 13.2155 63.1263 18.5382 64.3703C23.8609 65.6142 29.4487 65.004 34.3774 62.6404C39.3061 60.2769 43.2804 56.3018 45.6428 51.3726C48.0052 46.4433 48.6142 40.8553 47.369 35.533C46.1239 30.2106 43.0992 25.4726 38.7953 22.1029C34.4914 18.7333 29.1662 16.9337 23.7005 17.0019L23.8243 26.9187C27.0314 26.8786 30.156 27.9346 32.6814 29.9118C35.2068 31.889 36.9816 34.6691 37.7122 37.7921C38.4428 40.9151 38.0855 44.194 36.6993 47.0863C35.3131 49.9786 32.9811 52.3111 30.0891 53.6979C27.1971 55.0848 23.9184 55.4428 20.7952 54.7129C17.672 53.983 14.8916 52.2088 12.9138 49.6839C10.936 47.159 9.87932 44.0345 9.91862 40.8274C9.95792 37.6204 11.0908 34.5228 13.1299 32.047L5.4746 25.7419Z" fill="#C4C4C4"></path>
        </mask>
        <g mask="url(#mask0)">
            <path class="logo-path" fill-rule="evenodd" clip-rule="evenodd" d="M0.0253277 40.1957C0.0259381 40.2077 0.0265656 40.2197 0.0272141 40.2317C1.1834 40.3294 2.03234 40.5922 2.66049 40.9358C2.73777 40.9907 2.81335 41.0484 2.88706 41.1089C3.69326 41.7708 4.21407 42.7174 4.34166 43.7527C4.4364 44.7674 4.18887 45.7847 3.63849 46.6424C3.08812 47.5001 2.26655 48.149 1.30466 48.4857C1.73503 49.725 2.26753 50.9265 2.89666 52.0777C3.74488 51.4751 4.79525 51.2282 5.82311 51.3901C6.85096 51.5519 7.77468 52.1096 8.39666 52.9437C8.72911 53.4299 8.96285 53.9719 9.08936 54.5393L8.92921 55.0197L9.15079 54.872C9.19524 55.1747 9.20963 55.4827 9.19272 55.7917C9.17842 56.053 9.14193 56.3113 9.08428 56.5639L7.88622 58.1467C7.88622 58.1467 8.00748 58.2422 8.20454 58.3976C8.16753 58.4443 8.12957 58.4904 8.09066 58.5357C9.18733 59.4897 10.3708 60.3391 11.6257 61.0727C13.2257 59.0557 15.1687 58.7867 16.3607 59.2487C16.3816 59.2549 16.4024 59.2613 16.4232 59.2678C17.2967 59.6227 18.0251 60.263 18.4891 61.0853C18.9636 61.9262 19.1322 62.9055 18.9662 63.8567C19.0664 63.8767 19.1666 63.896 19.267 63.9147C19.2669 63.9154 19.2668 63.916 19.2667 63.9167C20.4579 64.1373 21.6646 64.2647 22.8757 64.2977C22.8757 64.2976 22.8757 64.2979 22.8757 64.2977C22.8805 64.2979 22.8854 64.2976 22.8902 64.2977C22.8842 64.2581 22.8789 64.2186 22.8743 64.1795C22.8762 63.1852 23.2246 62.2211 23.8614 61.4544C24.1475 61.1101 24.4833 60.8156 24.855 60.579C25.015 60.4802 25.1767 60.3918 25.3368 60.3142C25.6955 60.1461 26.0785 60.0273 26.4757 59.9637C27.4851 59.9221 28.4832 60.1891 29.3371 60.7289C30.1314 61.2311 30.7658 61.9472 31.1688 62.7929C31.189 62.8618 31.2075 62.9321 31.2242 63.0037C32.4472 62.5786 33.6331 62.0539 34.7702 61.4347C34.7561 61.3959 34.7273 61.3348 34.6893 61.2539C34.4604 60.7668 33.8957 59.565 34.1526 58.2307C34.393 57.1658 35.0546 56.3923 35.6597 55.9077C36.5081 55.3615 37.506 55.094 38.5139 55.1424C39.2216 55.1764 39.9094 55.3649 40.5305 55.6906C40.7634 55.8485 40.9514 55.999 41.0874 56.1078C41.1545 56.1616 41.2093 56.2054 41.2502 56.2347C42.1504 55.1999 42.9579 54.088 43.6632 52.9117C42.7335 52.48 42.0028 51.7108 41.6192 50.7602C41.2356 49.8096 41.228 48.7487 41.5977 47.7927C41.9675 46.8366 42.6871 46.057 43.6105 45.6119C43.689 45.574 43.7685 45.5388 43.8488 45.5063C44.1821 45.379 44.5161 45.2973 44.8304 45.2467C45.4093 45.1696 46.0032 45.2182 46.5702 45.3957C46.6287 45.104 46.6817 44.8112 46.729 44.5176C46.9497 43.5582 47.0453 42.5741 47.0131 41.5899C47.0155 41.5208 47.0175 41.4518 47.0192 41.3827C47.0143 41.3831 47.0094 41.3834 47.0045 41.3838C47.0039 41.3718 47.0033 41.3597 47.0027 41.3477C45.8465 41.25 44.9975 40.9872 44.3694 40.6436C44.2921 40.5888 44.2165 40.5311 44.1428 40.4706C43.3366 39.8086 42.8158 38.862 42.6882 37.8267C42.5935 36.812 42.841 35.7948 43.3914 34.937C43.9418 34.0793 44.7633 33.4304 45.7252 33.0937C45.2948 31.8544 44.7623 30.6529 44.1332 29.5017C43.285 30.1044 42.2346 30.3512 41.2068 30.1894C40.1789 30.0275 39.2552 29.4699 38.6332 28.6357C38.3008 28.1496 38.067 27.6075 37.9405 27.0401L38.1007 26.5597L37.8791 26.7074C37.8346 26.4048 37.8202 26.0967 37.8372 25.7878C37.8515 25.5264 37.888 25.2681 37.9456 25.0156L39.1437 23.4327C39.1437 23.4327 39.0224 23.3372 38.8253 23.1818C38.8623 23.1351 38.9003 23.0891 38.9392 23.0437C37.8425 22.0897 36.6591 21.2403 35.4042 20.5067C33.8042 22.5237 31.8612 22.7927 30.6692 22.3307C30.6483 22.3245 30.6275 22.3182 30.6067 22.3117C29.7332 21.9567 29.0047 21.3164 28.5408 20.4942C28.0663 19.6532 27.8977 18.6739 28.0637 17.7227C27.9635 17.7027 27.8633 17.6834 27.7629 17.6647C27.763 17.6641 27.7631 17.6634 27.7632 17.6627C26.5719 17.4422 25.3653 17.3148 24.1542 17.2817C24.1542 17.2818 24.1542 17.2816 24.1542 17.2817C24.1494 17.2816 24.1445 17.2818 24.1397 17.2817C24.1457 17.3214 24.151 17.3608 24.1556 17.4C24.1537 18.3943 23.8053 19.3583 23.1684 20.125C22.8824 20.4694 22.5466 20.7638 22.1749 21.0004C22.0149 21.0993 21.8532 21.1876 21.693 21.2653C21.3343 21.4334 20.9514 21.5521 20.5542 21.6157C19.5448 21.6573 18.5467 21.3904 17.6927 20.8505C16.8985 20.3484 16.264 19.6323 15.8611 18.7866C15.8409 18.7177 15.8224 18.6474 15.8057 18.5757C14.5827 19.0008 13.3967 19.5256 12.2597 20.1447C12.2738 20.1835 12.3026 20.2447 12.3406 20.3256C12.5695 20.8127 13.1342 22.0145 12.8773 23.3488C12.6369 24.4136 11.9752 25.1872 11.3702 25.6717C10.5217 26.2179 9.52388 26.4854 8.51598 26.437C7.80832 26.4031 7.12052 26.2145 6.49934 25.8889C6.26644 25.7309 6.07848 25.5805 5.94249 25.4716L5.94144 25.4708C5.87464 25.4173 5.82043 25.3739 5.77966 25.3447C4.87944 26.3795 4.07199 27.4914 3.36666 28.6677C4.29638 29.0994 5.02713 29.8686 5.41069 30.8192C5.79425 31.7698 5.80191 32.8307 5.43213 33.7868C5.06236 34.7428 4.34281 35.5224 3.41942 35.9676C3.34091 36.0054 3.26142 36.0406 3.18108 36.0731C2.84774 36.2005 2.5138 36.2821 2.19949 36.3327C1.62058 36.4099 1.0267 36.3612 0.45966 36.1837C0.401131 36.4755 0.3482 36.7682 0.30089 37.0618C0.0801487 38.0212 -0.0153904 39.0054 0.0167332 39.9896C0.0144043 40.0586 0.0123825 40.1277 0.0106659 40.1967C0.0155545 40.1964 0.0204411 40.196 0.0253277 40.1957ZM8.24722 40.0357C8.41177 36.7569 9.62656 33.6181 11.7121 31.0828C13.7977 28.5475 16.6434 26.7502 19.8289 25.9565C23.0144 25.1628 26.3707 25.4148 29.402 26.6751C29.6243 26.7676 29.844 26.8651 30.0609 26.9675L29.9897 27.0577C30.7877 27.4435 31.5509 27.8975 32.2707 28.4147C32.3043 28.3822 32.3381 28.3499 32.372 28.3177C34.0993 29.5413 35.5643 31.1174 36.6625 32.9557C37.9449 35.1022 38.6755 37.5194 38.8066 39.9931L38.0997 40.0817C38.1605 40.2442 38.2546 40.3917 38.3774 40.5142C38.5003 40.6367 38.648 40.7313 38.8107 40.7917L38.828 40.7831C38.8283 41.0326 38.8225 41.2826 38.8106 41.5326C38.8013 41.5363 38.792 41.54 38.7827 41.5437C38.6181 44.8225 37.4033 47.9614 35.3178 50.4967C33.2322 53.032 30.3865 54.8292 27.201 55.6229C24.0155 56.4166 20.6591 56.1647 17.6278 54.9043C17.4055 54.8119 17.1859 54.7144 16.9689 54.6119L17.0402 54.5217C16.2422 54.136 15.479 53.6819 14.7592 53.1647C14.7256 53.1972 14.6918 53.2296 14.6579 53.2618C12.9306 52.0382 11.4656 50.462 10.3673 48.6237C9.085 46.4772 8.35439 44.06 8.22331 41.5864L8.93022 41.4977C8.86938 41.3352 8.7753 41.1877 8.65246 41.0652C8.52961 40.9427 8.38186 40.8481 8.21922 40.7877L8.20189 40.7964C8.20157 40.5468 8.20737 40.2969 8.21931 40.0468C8.22861 40.0431 8.23791 40.0394 8.24722 40.0357Z" fill="white"></path>
            <path class="logo-path" d="M7.15221 57.1547L7.50822 56.4427L8.22021 56.7987L7.15221 57.1547Z" fill="white"></path>
            <path class="logo-path" d="M39.8777 24.4247L39.5217 25.1367L38.8097 24.7807L39.8777 24.4247Z" fill="white"></path>
        </g>
    </svg>