<?xml version="1.0" encoding="iso-8859-1"?>
<!-- Generator: Adobe Illustrator 19.0.0, SVG Export Plug-In . SVG Version: 6.00 Build 0)  -->
<svg version="1.1" id="Capa_1" xmlns="http://www.w3.org/2000/svg" xmlns:xlink="http://www.w3.org/1999/xlink" x="0px" y="0px"
	 viewBox="0 0 480 480" style="enable-background:new 0 0 480 480;" xml:space="preserve">
<g>
	<rect x="96" y="136" style="fill:#ABD4D8;" width="368" height="32"/>
	<path style="fill:#ABD4D8;" d="M96,409.976l86.4-61c-4.072-11.592-6.4-24.008-6.4-36.976c0-61.76,50.24-112,112-112
		s112,50.24,112,112s-50.24,112-112,112c-30.312,0-57.8-12.152-77.984-31.776L99.096,464H440c13.232,0,24-10.768,24-24V184H96
		V409.976z"/>
</g>
<path style="fill:#F08843;" d="M288,408c52.936,0,96-43.064,96-96s-43.064-96-96-96s-96,43.064-96,96S235.064,408,288,408z
	 M241.752,299c1.544-1.928,3.944-2.976,6.376-3c2.472,0.04,4.792,1.216,6.272,3.2l13.912,18.544l11.928-47.688
	c0.848-3.416,3.832-5.864,7.344-6.056c3.64-0.264,6.736,1.96,7.928,5.256l24.16,66.424l24.744-74.216l15.168,5.064l-32,96
	c-1.072,3.224-4.08,5.424-7.48,5.472c-0.04,0-0.072,0-0.112,0c-3.36,0-6.368-2.104-7.512-5.264l-23.064-63.424l-9.664,38.624
	c-0.744,3-3.152,5.296-6.168,5.904c-3.072,0.568-6.144-0.576-7.984-3.048l-17.8-23.736l-25.544,31.936l-12.496-10L241.752,299z"/>
<path style="fill:#668894;" d="M80,128c0-4.424,3.576-8,8-8h320V80H16v272h64V128z"/>
<g>
	<path style="fill:#ABD4D8;" d="M188.888,363.992l-116.56,82.28c-3,2.12-3.76,6.16-1.72,9.2c2.032,3.048,6.176,3.888,9.232,1.92
		l119.448-77.296C195.4,375.048,191.888,369.688,188.888,363.992z"/>
	<path style="fill:#ABD4D8;" d="M408,16H16v48h392V16z M48,48H32V32h16V48z M80,48H64V32h16V48z M112,48H96V32h16V48z"/>
</g>
<g>
	<path style="fill:#203C51;" d="M472,120h-48V8c0-4.424-3.576-8-8-8H8C3.576,0,0,3.576,0,8v352c0,4.424,3.576,8,8,8h72v53.272
		L63.096,433.2c-10.144,7.16-12.68,20.848-5.8,31.16c4.352,6.528,11.6,10.088,18.968,10.088c1.384,0,2.768-0.176,4.144-0.432
		C81.32,477.432,84.296,480,88,480h352c22.056,0,40-17.944,40-40V128C480,123.576,476.424,120,472,120z M464,168H96v-32h368V168z
		 M408,16v48H16V16H408z M16,352V80h392v40H88c-4.424,0-8,3.576-8,8v224H16z M70.608,455.48c-2.04-3.048-1.28-7.088,1.72-9.2
		L188.888,364c3,5.688,6.504,11.048,10.4,16.112L79.84,457.408C76.784,459.368,72.64,458.52,70.608,455.48z M192,312
		c0-52.936,43.064-96,96-96s96,43.064,96,96s-43.064,96-96,96S192,364.936,192,312z M440,464H99.096l110.92-71.776
		C230.2,411.848,257.688,424,288,424c61.76,0,112-50.24,112-112s-50.24-112-112-112s-112,50.24-112,112
		c0,12.968,2.328,25.384,6.4,36.976l-86.4,61V184h368v256C464,453.232,453.232,464,440,464z"/>
	<path style="fill:#203C51;" d="M247.8,317.064l17.8,23.736c1.84,2.472,4.912,3.616,7.984,3.048
		c3.024-0.608,5.432-2.904,6.168-5.904l9.664-38.624l23.064,63.424c1.152,3.152,4.16,5.256,7.52,5.256c0.04,0,0.072,0,0.112,0
		c3.4-0.048,6.408-2.24,7.48-5.472l32-96l-15.168-5.064L319.68,335.68l-24.16-66.424c-1.192-3.296-4.288-5.52-7.928-5.256
		c-3.512,0.184-6.496,2.64-7.344,6.056l-11.928,47.688L254.4,299.2c-1.488-1.984-3.8-3.16-6.272-3.2
		c-2.432,0.024-4.832,1.072-6.376,3l-32,40l12.496,10L247.8,317.064z"/>
	<rect x="32" y="32" style="fill:#203C51;" width="16" height="16"/>
	<rect x="64" y="32" style="fill:#203C51;" width="16" height="16"/>
	<rect x="96" y="32" style="fill:#203C51;" width="16" height="16"/>
</g>
<g>
</g>
<g>
</g>
<g>
</g>
<g>
</g>
<g>
</g>
<g>
</g>
<g>
</g>
<g>
</g>
<g>
</g>
<g>
</g>
<g>
</g>
<g>
</g>
<g>
</g>
<g>
</g>
<g>
</g>
</svg>
