<svg width="132" height="48" viewBox="0 0 132 48" fill="none" xmlns="http://www.w3.org/2000/svg">
<path d="M9.29111 0C11.0061 0 12.5325 0.39445 13.8702 1.18335C15.225 1.97225 16.2883 3.09558 17.0601 4.55333L13.6901 6.84285C13.1756 5.9682 12.5582 5.29078 11.8379 4.81058C11.1347 4.31323 10.2772 4.06455 9.26539 4.06455C8.59654 4.06455 7.97914 4.1846 7.41319 4.4247C6.84724 4.64765 6.35846 4.96493 5.94686 5.37653C5.53526 5.78813 5.20941 6.28548 4.96931 6.86858C4.74636 7.45168 4.63489 8.10338 4.63489 8.82368C4.63489 9.54398 4.74636 10.1957 4.96931 10.7788C5.20941 11.3447 5.53526 11.8335 5.94686 12.2451C6.35846 12.6567 6.84724 12.974 7.41319 13.1969C7.97914 13.4199 8.59654 13.5314 9.26539 13.5314C10.2772 13.5314 11.1347 13.2913 11.8379 12.8111C12.5582 12.3137 13.1756 11.6277 13.6901 10.7531L17.0601 13.0426C16.2883 14.5003 15.225 15.6237 13.8702 16.4126C12.5153 17.2015 10.9804 17.5959 9.26539 17.5959C7.97914 17.5959 6.77864 17.373 5.66389 16.9271C4.54914 16.4812 3.58016 15.8638 2.75696 15.0749C1.93376 14.286 1.28206 13.3599 0.80186 12.2966C0.33881 11.2161 0.107285 10.0499 0.107285 8.79795C0.107285 7.546 0.33881 6.38838 0.80186 5.32508C1.28206 4.24463 1.93376 3.30995 2.75696 2.52105C3.59731 1.73215 4.57486 1.11475 5.68961 0.668851C6.80436 0.22295 8.00486 0 9.29111 0Z" fill="#6C2A94"/>
<path d="M29.7881 8.07765H26.0323V17.2872H21.6076V8.07765H17.8774V4.37325H29.7881V8.07765Z" fill="#6C2A94"/>
<path d="M38.6514 17.9818C37.9997 19.4224 37.2365 20.4857 36.3619 21.1717C35.4872 21.8748 34.381 22.2264 33.0433 22.2264C32.6317 22.2264 32.2116 22.1921 31.7828 22.1235C31.3541 22.0721 30.951 22.0035 30.5737 21.9177V18.2133C30.8824 18.2305 31.1568 18.239 31.3969 18.239C31.637 18.2562 31.86 18.2648 32.0658 18.2648C32.5803 18.2648 33.0519 18.179 33.4807 18.0075C33.9094 17.836 34.2781 17.4158 34.5868 16.747L34.7926 16.3097L30.085 4.4247H34.7926L37.2365 11.6534L40.0148 4.4247H44.6968L38.6514 17.9818Z" fill="#6C2A94"/>
<path d="M60.5612 20.9144H56.1365V17.2872H48.1618V20.9144H43.7371V13.5828H45.0233C45.4006 13.2741 45.7265 12.9225 46.0009 12.5281C46.2924 12.1165 46.5325 11.6363 46.7212 11.0875C46.927 10.5215 47.0728 9.86983 47.1585 9.13238C47.2614 8.39493 47.3129 7.53743 47.3129 6.55988V4.4247H58.1688V13.5828H60.5612V20.9144ZM51.7376 8.1291C51.7033 9.261 51.5746 10.2814 51.3517 11.1904C51.1287 12.0993 50.7429 12.8968 50.1941 13.5828H53.7441V8.1291H51.7376Z" fill="#6C2A94"/>
<path d="M75.4132 17.2872H70.9885V11.6792L64.0428 17.5959H62.6279V4.4247H67.0526V10.0328L73.9983 4.116H75.4132V17.2872Z" fill="#6C2A94"/>
<path d="M90.5186 17.2872H86.0939V14.5604H84.4732L82.1837 17.2872H77.2702L80.3572 13.377C79.7913 12.9483 79.3454 12.4166 79.0195 11.7821C78.6937 11.1304 78.5308 10.3672 78.5308 9.49253C78.5308 8.66933 78.6765 7.94045 78.9681 7.3059C79.2768 6.67135 79.6884 6.14828 80.2029 5.73668C80.7174 5.30793 81.3176 4.98208 82.0036 4.75913C82.7068 4.53618 83.4528 4.4247 84.2417 4.4247H90.5186V17.2872ZM84.5761 8.1291C84.1817 8.1291 83.8215 8.232 83.4957 8.4378C83.187 8.62645 83.0326 8.96088 83.0326 9.44108C83.0326 9.92128 83.187 10.2814 83.4957 10.5215C83.8215 10.7445 84.1817 10.856 84.5761 10.856H86.0939V8.1291H84.5761Z" fill="#6C2A94"/>
<path d="M5.25229 36.115L9.57409 30.507H14.4876L9.85706 36.3208L14.7963 43.3695H9.88279L5.25229 36.681V43.3695H0.827585V30.507H5.25229V36.115Z" fill="#6C2A94"/>
<path d="M22.2022 30.1983C23.1627 30.1983 24.0716 30.3698 24.9291 30.7128C25.7866 31.0558 26.5326 31.5274 27.1672 32.1277C27.8017 32.7279 28.2991 33.4396 28.6592 34.2628C29.0365 35.086 29.2252 35.9778 29.2252 36.9382C29.2252 37.8986 29.0365 38.7904 28.6592 39.6136C28.2991 40.4368 27.8017 41.1486 27.1672 41.7488C26.5326 42.3491 25.7866 42.8207 24.9291 43.1637C24.0716 43.5067 23.1627 43.6782 22.2022 43.6782C21.2247 43.6782 20.3072 43.5067 19.4497 43.1637C18.6093 42.8207 17.8719 42.3491 17.2373 41.7488C16.6199 41.1486 16.1226 40.4368 15.7453 39.6136C15.3851 38.7904 15.205 37.8986 15.205 36.9382C15.205 35.9778 15.3851 35.086 15.7453 34.2628C16.1226 33.4396 16.6199 32.7279 17.2373 32.1277C17.8719 31.5274 18.6093 31.0558 19.4497 30.7128C20.3072 30.3698 21.2247 30.1983 22.2022 30.1983ZM22.228 34.2628C21.4734 34.2628 20.8645 34.5115 20.4015 35.0089C19.9556 35.5062 19.7326 36.1493 19.7326 36.9382C19.7326 37.7443 19.9556 38.396 20.4015 38.8933C20.8645 39.3735 21.4734 39.6136 22.228 39.6136C22.9311 39.6136 23.5142 39.3735 23.9773 38.8933C24.4575 38.396 24.6976 37.7443 24.6976 36.9382C24.6976 36.1493 24.4575 35.5062 23.9773 35.0089C23.5142 34.5115 22.9311 34.2628 22.228 34.2628Z" fill="#6C2A94"/>
<path d="M46.4203 43.3695H41.9956V38.7647L39.6804 41.2086H38.2655L36.0017 38.7904V43.3695H31.577V30.1983H32.9919L38.9858 36.6553L45.0569 30.1983H46.4203V43.3695Z" fill="#6C2A94"/>
<path d="M60.756 30.1983C61.8021 30.2154 62.7797 30.3698 63.6886 30.6613C64.6147 30.9529 65.4208 31.3816 66.1068 31.9476C66.7928 32.5135 67.333 33.2081 67.7275 34.0313C68.1219 34.8545 68.3191 35.8063 68.3191 36.8868C68.3191 37.9672 68.1219 38.9276 67.7275 39.768C67.333 40.6083 66.7928 41.3201 66.1068 41.9032C65.4208 42.4691 64.6147 42.9064 63.6886 43.2151C62.7797 43.5067 61.8021 43.661 60.756 43.6782V48H56.3313V43.6782C55.2851 43.661 54.299 43.4981 53.3729 43.1894C52.464 42.8807 51.6665 42.4434 50.9805 41.8774C50.2945 41.2943 49.7543 40.5912 49.3598 39.768C48.9654 38.9276 48.7681 37.9672 48.7681 36.8868C48.7681 35.8063 48.9654 34.8545 49.3598 34.0313C49.7543 33.2081 50.2945 32.5221 50.9805 31.9733C51.6665 31.4074 52.464 30.9786 53.3729 30.6871C54.299 30.3784 55.2851 30.2154 56.3313 30.1983V24.0757H60.756V30.1983ZM60.6274 33.9027V39.9738H60.7045C61.7335 39.9738 62.5482 39.7251 63.1484 39.2278C63.7487 38.7304 64.0488 37.9672 64.0488 36.9382C64.0488 35.9264 63.7487 35.1718 63.1484 34.6744C62.5482 34.1599 61.7335 33.9027 60.7045 33.9027H60.6274ZM53.0642 36.9382C53.0642 37.9672 53.3643 38.7304 53.9646 39.2278C54.5648 39.7251 55.3709 39.9738 56.3827 39.9738H56.4599V33.9027H56.3827C55.3709 33.9027 54.5648 34.1599 53.9646 34.6744C53.3643 35.1718 53.0642 35.9264 53.0642 36.9382Z" fill="#6C2A94"/>
<path d="M76.9181 30.1983C77.8785 30.1983 78.7875 30.3698 79.645 30.7128C80.5025 31.0558 81.2485 31.5274 81.8831 32.1277C82.5176 32.7279 83.015 33.4396 83.3751 34.2628C83.7524 35.086 83.9411 35.9778 83.9411 36.9382C83.9411 37.8986 83.7524 38.7904 83.3751 39.6136C83.015 40.4368 82.5176 41.1486 81.8831 41.7488C81.2485 42.3491 80.5025 42.8207 79.645 43.1637C78.7875 43.5067 77.8785 43.6782 76.9181 43.6782C75.9406 43.6782 75.0231 43.5067 74.1656 43.1637C73.3252 42.8207 72.5878 42.3491 71.9532 41.7488C71.3358 41.1486 70.8385 40.4368 70.4612 39.6136C70.101 38.7904 69.9209 37.8986 69.9209 36.9382C69.9209 35.9778 70.101 35.086 70.4612 34.2628C70.8385 33.4396 71.3358 32.7279 71.9532 32.1277C72.5878 31.5274 73.3252 31.0558 74.1656 30.7128C75.0231 30.3698 75.9406 30.1983 76.9181 30.1983ZM76.9439 34.2628C76.1893 34.2628 75.5804 34.5115 75.1174 35.0089C74.6715 35.5062 74.4485 36.1493 74.4485 36.9382C74.4485 37.7443 74.6715 38.396 75.1174 38.8933C75.5804 39.3735 76.1893 39.6136 76.9439 39.6136C77.647 39.6136 78.2301 39.3735 78.6932 38.8933C79.1734 38.396 79.4135 37.7443 79.4135 36.9382C79.4135 36.1493 79.1734 35.5062 78.6932 35.0089C78.2301 34.5115 77.647 34.2628 76.9439 34.2628Z" fill="#6C2A94"/>
<path d="M94.0104 30.1983C94.9022 30.1983 95.7254 30.3698 96.48 30.7128C97.2517 31.0386 97.9034 31.5017 98.4351 32.1019C98.9839 32.685 99.4126 33.3882 99.7213 34.2114C100.03 35.0346 100.184 35.935 100.184 36.9125C100.184 37.8901 100.03 38.799 99.7213 39.6394C99.4126 40.4626 98.9839 41.1743 98.4351 41.7745C97.9034 42.3748 97.2517 42.8464 96.48 43.1894C95.7254 43.5153 94.9022 43.6782 94.0104 43.6782C92.6041 43.6782 91.5065 43.2837 90.7176 42.4948V48H86.2929V30.507H90.3317V31.8447C90.7262 31.313 91.2321 30.91 91.8495 30.6356C92.4669 30.3441 93.1872 30.1983 94.0104 30.1983ZM93.1357 34.2114C92.827 34.2114 92.5183 34.2628 92.2096 34.3657C91.9181 34.4686 91.6523 34.6316 91.4122 34.8545C91.1892 35.0775 91.0006 35.3604 90.8462 35.7034C90.709 36.0464 90.6404 36.4495 90.6404 36.9125C90.6404 37.3756 90.709 37.7786 90.8462 38.1216C91.0006 38.4646 91.1892 38.7561 91.4122 38.9962C91.6523 39.2192 91.9181 39.3907 92.2096 39.5107C92.5183 39.6136 92.827 39.6651 93.1357 39.6651C93.4616 39.6651 93.7703 39.6136 94.0618 39.5107C94.3705 39.3907 94.6364 39.2192 94.8593 38.9962C95.0994 38.7561 95.2881 38.4646 95.4253 38.1216C95.5796 37.7786 95.6568 37.3841 95.6568 36.9382C95.6568 36.4923 95.5882 36.0979 95.451 35.7549C95.3138 35.4119 95.1251 35.1289 94.885 34.906C94.6621 34.6659 94.3963 34.4944 94.0876 34.3915C93.7789 34.2714 93.4616 34.2114 93.1357 34.2114Z" fill="#6C2A94"/>
<path d="M113.018 34.1599H109.262V43.3695H104.837V34.1599H101.107V30.4555H113.018V34.1599Z" fill="#6C2A94"/>
<path d="M120.237 30.1983C121.112 30.1983 121.91 30.3183 122.63 30.5584C123.35 30.7985 123.959 31.1587 124.456 31.6389C124.971 32.1019 125.365 32.6936 125.64 33.4139C125.931 34.1342 126.077 34.966 126.077 35.9092V43.3695H122.038V42.3405C121.592 42.7521 121.052 43.0779 120.418 43.318C119.8 43.5581 119.106 43.6782 118.334 43.6782C117.613 43.6782 116.97 43.5753 116.404 43.3695C115.856 43.1465 115.393 42.855 115.015 42.4948C114.655 42.1175 114.381 41.6888 114.192 41.2086C114.003 40.7284 113.909 40.2225 113.909 39.6908C113.909 38.4732 114.355 37.5299 115.247 36.8611C116.156 36.1922 117.391 35.8578 118.951 35.8578H121.652V35.652C121.652 35.1889 121.498 34.8031 121.189 34.4944C120.898 34.1685 120.4 34.0056 119.697 34.0056C119.08 34.0056 118.522 34.1428 118.025 34.4172C117.545 34.6916 117.03 35.0775 116.482 35.5748L114.424 32.7708C115.264 31.9133 116.139 31.2702 117.048 30.8414C117.974 30.4127 119.037 30.1983 120.237 30.1983ZM119.697 40.5397C120.246 40.5397 120.709 40.3768 121.086 40.051C121.464 39.7251 121.652 39.2621 121.652 38.6618V38.5589H119.569C118.78 38.5589 118.385 38.8848 118.385 39.5365C118.385 39.8452 118.497 40.0938 118.72 40.2825C118.943 40.454 119.268 40.5397 119.697 40.5397Z" fill="#6C2A94"/>
<path fill-rule="evenodd" clip-rule="evenodd" d="M101.023 13.7742C98.7847 12.9894 97.1207 12.5269 97.1207 12.5269C97.1207 12.5269 98.2575 11.6742 99.9426 10.4279C102.222 8.74185 105.505 6.3355 108.333 4.34529C109.255 3.69646 110.129 3.09185 110.904 2.57085C111.537 2.14527 112.104 1.77549 112.578 1.48294C114.097 0.544479 114.656 0.400936 113.344 1.76081C112.871 2.25129 112.622 2.74759 112.559 3.24401C112.483 3.8453 112.678 4.44677 113.077 5.03825C114.757 7.53239 120.044 9.84895 123.741 11.2263C125.928 12.0409 127.559 12.5269 127.559 12.5269C127.559 12.5269 126.45 13.3822 124.809 14.6315C122.643 16.28 119.548 18.6145 116.846 20.5755C115.901 21.2607 115.005 21.9004 114.212 22.4492C113.618 22.8606 113.083 23.221 112.63 23.5112C111.068 24.5117 110.484 24.6795 111.851 23.2343C112.299 22.7604 112.545 22.2846 112.622 21.8111C112.727 21.1729 112.525 20.5389 112.096 19.9195C110.35 17.3965 104.848 15.115 101.023 13.7742ZM103.805 11.71C105.391 12.2818 107.211 12.9967 108.964 13.8207C111.144 14.8457 113.512 16.1729 115.093 17.7462C117.167 16.2195 119.326 14.5922 121.023 13.3024C119.459 12.7077 117.652 11.9605 115.914 11.1023C113.816 10.066 111.547 8.73545 110.03 7.18036C107.868 8.72445 105.597 10.3874 103.805 11.71Z" fill="#6C2A94"/>
</svg>
