<?xml version="1.0" encoding="iso-8859-1"?>
<!-- Generator: Adobe Illustrator 19.0.0, SVG Export Plug-In . SVG Version: 6.00 Build 0)  -->
<svg version="1.1" id="Capa_1" xmlns="http://www.w3.org/2000/svg" xmlns:xlink="http://www.w3.org/1999/xlink" x="0px" y="0px"
	 viewBox="0 0 512 512" style="enable-background:new 0 0 512 512;" xml:space="preserve">
<path style="fill:#F1F6F5;" d="M436,0H76c-8.284,0-15,6.716-15,15v482c0,8.284,6.716,15,15,15h360c8.284,0,15-6.716,15-15V15
	C451,6.716,444.284,0,436,0z"/>
<path style="fill:#D4E1DC;" d="M436,0H256v512h180c8.284,0,15-6.716,15-15V15C451,6.716,444.284,0,436,0z"/>
<path style="fill:#2EDDFD;" d="M196,90h-60c-8.284,0-15-6.716-15-15s6.716-15,15-15h60c8.284,0,15,6.716,15,15S204.284,90,196,90z"
	/>
<path style="fill:#52F785;" d="M216,182h-80c-8.284,0-15,6.716-15,15v80c0,8.284,6.716,15,15,15h80c8.284,0,15-6.716,15-15v-80
	C231,188.716,224.284,182,216,182z"/>
<g>
	<path style="fill:#5A6060;" d="M226,362h-50c-8.284,0-15-6.716-15-15s6.716-15,15-15h50c8.284,0,15,6.716,15,15
		S234.284,362,226,362z"/>
	<path style="fill:#5A6060;" d="M226,402h-90c-8.284,0-15-6.716-15-15s6.716-15,15-15h90c8.284,0,15,6.716,15,15
		S234.284,402,226,402z"/>
	<path style="fill:#5A6060;" d="M226,442h-90c-8.284,0-15-6.716-15-15s6.716-15,15-15h90c8.284,0,15,6.716,15,15
		S234.284,442,226,442z"/>
</g>
<g>
	<path style="fill:#424545;" d="M336,212h-50c-8.284,0-15-6.716-15-15s6.716-15,15-15h50c8.284,0,15,6.716,15,15
		S344.284,212,336,212z"/>
	<path style="fill:#424545;" d="M376,252h-90c-8.284,0-15-6.716-15-15s6.716-15,15-15h90c8.284,0,15,6.716,15,15
		S384.284,252,376,252z"/>
	<path style="fill:#424545;" d="M336,292h-50c-8.284,0-15-6.716-15-15s6.716-15,15-15h50c8.284,0,15,6.716,15,15
		S344.284,292,336,292z"/>
</g>
<g>
	<path style="fill:#268DC6;" d="M376,90h-20c-8.284,0-15-6.716-15-15s6.716-15,15-15h20c8.284,0,15,6.716,15,15S384.284,90,376,90z"
		/>
	<path style="fill:#268DC6;" d="M316,90h-20c-8.284,0-15-6.716-15-15s6.716-15,15-15h20c8.284,0,15,6.716,15,15S324.284,90,316,90z"
		/>
</g>
<path style="fill:#46D989;" d="M376,332h-80c-8.284,0-15,6.716-15,15v80c0,8.284,6.716,15,15,15h80c8.284,0,15-6.716,15-15v-80
	C391,338.716,384.284,332,376,332z"/>
<g>
</g>
<g>
</g>
<g>
</g>
<g>
</g>
<g>
</g>
<g>
</g>
<g>
</g>
<g>
</g>
<g>
</g>
<g>
</g>
<g>
</g>
<g>
</g>
<g>
</g>
<g>
</g>
<g>
</g>
</svg>
